<svg width="24" height="24" viewBox="0 0 24 24" fill="none" xmlns="http://www.w3.org/2000/svg">
<path d="M6.21548 1.96078C6.26892 1.96031 6.32236 1.96031 6.3772 1.95984C6.55251 1.95891 6.72829 1.95844 6.90361 1.95797C6.96361 1.9575 7.02408 1.9575 7.08595 1.9575C7.37142 1.95656 7.65689 1.95562 7.94189 1.95516C8.27048 1.95469 8.59861 1.95375 8.92673 1.95188C9.2122 1.95 9.4972 1.94953 9.78267 1.94953C9.90361 1.94906 10.0245 1.94859 10.1455 1.94766C10.3147 1.94672 10.4839 1.94672 10.6536 1.94719C10.7277 1.94625 10.7277 1.94625 10.8036 1.94531C11.1463 1.94766 11.4561 1.99687 11.713 2.24016C11.9806 2.53594 12.0238 2.76609 12.0177 3.165C11.9853 3.46266 11.8433 3.64078 11.6281 3.83812C11.3211 4.05094 11.0328 4.04484 10.6724 4.04344C10.5927 4.04391 10.5927 4.04391 10.5116 4.04391C10.3963 4.04437 10.2814 4.04438 10.1661 4.04438C9.98376 4.04438 9.80095 4.04484 9.61861 4.04578C9.0997 4.04813 8.58079 4.04906 8.06189 4.04953C7.74454 4.04953 7.42673 4.05094 7.10892 4.05234C6.98845 4.05281 6.86798 4.05328 6.74704 4.05281C6.57783 4.05234 6.40861 4.05328 6.23892 4.05422C6.1897 4.05375 6.14048 4.05375 6.08986 4.05328C5.53861 4.05938 5.05673 4.22906 4.64048 4.59422C4.30251 4.94297 4.07283 5.39953 4.07189 5.89125C4.07142 5.93531 4.07142 5.97937 4.07095 6.02484C4.07142 6.07312 4.07142 6.12188 4.07142 6.17156C4.07095 6.22313 4.07095 6.27422 4.07048 6.32719C4.07001 6.50016 4.07001 6.67313 4.07001 6.84656C4.06955 6.97031 4.06908 7.09406 4.06908 7.21781C4.06814 7.59 4.06767 7.96172 4.0672 8.33391C4.06673 8.50922 4.06673 8.68453 4.06626 8.85984C4.06533 9.44297 4.06486 10.0261 4.06439 10.6088C4.06439 10.7602 4.06439 10.9116 4.06439 11.063C4.06439 11.1192 4.06439 11.1192 4.06439 11.1769C4.06392 11.7853 4.06251 12.3937 4.06111 13.0027C4.0597 13.6275 4.05876 14.2528 4.05876 14.8781C4.0583 15.2292 4.05783 15.5798 4.05689 15.9309C4.05595 16.2295 4.05548 16.5286 4.05595 16.8277C4.05595 16.98 4.05595 17.1323 4.05501 17.2847C4.05408 17.4502 4.05455 17.6161 4.05501 17.7816C4.05455 17.8289 4.05408 17.8767 4.05361 17.9255C4.05876 18.4697 4.23361 18.9492 4.59361 19.3598C4.94283 19.6978 5.39939 19.9275 5.89111 19.9284C5.9572 19.9289 5.9572 19.9289 6.0247 19.9289C6.07298 19.9289 6.12126 19.9289 6.17095 19.9289C6.2483 19.9294 6.24829 19.9294 6.32704 19.9298C6.50001 19.9303 6.67298 19.9303 6.84595 19.9303C6.9697 19.9308 7.09345 19.9312 7.2172 19.9312C7.58939 19.9322 7.96158 19.9327 8.3333 19.9331C8.50861 19.9336 8.68392 19.9336 8.85923 19.9341C9.44236 19.9345 10.0255 19.9355 10.6086 19.9359C10.76 19.9359 10.911 19.9359 11.0624 19.9359C11.0999 19.9359 11.1378 19.9359 11.1763 19.9359C11.7852 19.9364 12.3936 19.9378 13.002 19.9392C13.6274 19.9406 14.2527 19.9416 14.878 19.9416C15.2286 19.942 15.5797 19.942 15.9303 19.9434C16.2294 19.9444 16.5285 19.9448 16.827 19.9444C16.9794 19.9444 17.1317 19.9444 17.2841 19.9453C17.45 19.9462 17.6155 19.9458 17.7814 19.9448C17.8288 19.9458 17.8761 19.9462 17.9253 19.9467C18.4691 19.9416 18.9491 19.7667 19.3592 19.4067C19.7014 19.0533 19.9274 18.5953 19.9278 18.0989C19.9283 18.0525 19.9283 18.0066 19.9288 17.9587C19.9288 17.9086 19.9283 17.858 19.9283 17.8059C19.9288 17.753 19.9288 17.6995 19.9288 17.6447C19.9292 17.5289 19.9297 17.4131 19.9297 17.2973C19.9302 17.1136 19.9306 16.9303 19.9316 16.747C19.932 16.6837 19.9325 16.6209 19.9325 16.5581C19.9325 16.5267 19.933 16.4953 19.933 16.4625C19.9349 16.0359 19.9367 15.6089 19.9372 15.1819C19.9377 14.8627 19.9391 14.5439 19.941 14.2247C19.9414 14.1033 19.9419 13.9819 19.9419 13.8605C19.9414 13.6903 19.9424 13.5202 19.9438 13.35C19.9438 13.2998 19.9433 13.2502 19.9428 13.1986C19.947 12.8559 19.9963 12.5447 20.2395 12.2873C20.5358 12.0197 20.766 11.9766 21.1644 11.9827C21.4625 12.015 21.6406 12.157 21.838 12.3722C22.0499 12.6778 22.0452 12.9652 22.0442 13.3242C22.0442 13.4034 22.0442 13.4034 22.0447 13.4841C22.0456 13.658 22.0456 13.8323 22.0452 14.0067C22.0456 14.1281 22.0456 14.25 22.0461 14.3719C22.0461 14.6269 22.0461 14.8823 22.0461 15.1378C22.0456 15.4312 22.0461 15.7242 22.0475 16.0177C22.0485 16.3013 22.0484 16.5853 22.0484 16.8689C22.0484 16.9889 22.0485 17.1084 22.0489 17.2284C22.0536 18.5789 21.8806 19.7203 20.953 20.7661C20.9099 20.8158 20.9099 20.8158 20.8658 20.8669C20.2278 21.5569 19.2505 21.9511 18.328 22.0317C18.1545 22.0383 17.9816 22.0383 17.8077 22.0383C17.7566 22.0383 17.705 22.0383 17.652 22.0387C17.48 22.0392 17.3084 22.0392 17.1364 22.0392C17.0131 22.0392 16.8894 22.0397 16.7661 22.0397C16.431 22.0406 16.0958 22.0406 15.7606 22.0411C15.5511 22.0411 15.3416 22.0411 15.132 22.0416C14.5508 22.042 13.9695 22.0425 13.3883 22.0425C13.3508 22.0425 13.3138 22.043 13.2753 22.043C13.2383 22.043 13.2008 22.043 13.1628 22.043C13.0874 22.043 13.0119 22.043 12.9364 22.043C12.8989 22.043 12.8614 22.043 12.823 22.043C12.2174 22.043 11.6113 22.0439 11.0056 22.0448C10.3827 22.0462 9.7597 22.0467 9.13673 22.0467C8.78705 22.0467 8.43783 22.0472 8.08861 22.0477C7.79095 22.0486 7.4933 22.0491 7.19564 22.0486C7.04423 22.0481 6.89283 22.0486 6.74095 22.0491C5.4022 22.0537 4.2697 21.8719 3.23423 20.9536C3.18455 20.91 3.18455 20.91 3.13345 20.8659C2.45048 20.2345 2.07408 19.2839 1.96861 18.3755C1.96205 18.2025 1.96205 18.03 1.96205 17.857C1.96205 17.805 1.96205 17.7534 1.96158 17.7C1.96111 17.5266 1.96111 17.3531 1.96111 17.1797C1.96111 17.055 1.96064 16.9308 1.96064 16.8061C1.9597 16.4681 1.9597 16.1302 1.95923 15.7922C1.95923 15.5808 1.95923 15.3694 1.95876 15.158C1.9583 14.572 1.95783 13.9861 1.95783 13.4002C1.95736 13.3627 1.95736 13.3252 1.95736 13.2867C1.95736 13.2487 1.95736 13.2112 1.95736 13.1728C1.95736 13.0964 1.95736 13.0205 1.95736 12.9445C1.95736 12.9066 1.95736 12.8691 1.95736 12.8302C1.95736 12.2189 1.95642 11.6081 1.95548 10.9973C1.95408 10.3692 1.95361 9.74109 1.95361 9.1125C1.95361 8.76047 1.95314 8.40797 1.9522 8.05594C1.95173 7.75547 1.95126 7.45547 1.95173 7.15547C1.9522 7.00266 1.95173 6.84984 1.95126 6.69703C1.94658 5.40984 2.11814 4.28391 2.99986 3.28172C3.03126 3.24609 3.06267 3.21 3.09455 3.17344C3.90595 2.30484 5.0558 1.96359 6.21548 1.96078Z" fill="white"/>
<path d="M15.0746 1.96242C15.1281 1.96195 15.1815 1.96195 15.2363 1.96148C15.2945 1.96148 15.3531 1.96148 15.4131 1.96148C15.4749 1.96102 15.5363 1.96102 15.5996 1.96055C15.7688 1.96008 15.9376 1.95961 16.1063 1.95961C16.2123 1.95961 16.3177 1.95914 16.4232 1.95914C16.7542 1.95867 17.0851 1.9582 17.4156 1.95773C17.7971 1.95773 18.1782 1.9568 18.5598 1.95539C18.8546 1.95445 19.1499 1.95398 19.4448 1.95398C19.621 1.95398 19.7968 1.95352 19.9731 1.95258C20.139 1.95211 20.3045 1.95164 20.4704 1.95211C20.5595 1.95211 20.649 1.95164 20.7385 1.95117C21.1477 1.95305 21.4937 1.99383 21.797 2.29711C21.9742 2.55352 22.037 2.7668 22.0379 3.07477C22.0384 3.1282 22.0384 3.18164 22.0388 3.23648C22.0388 3.32414 22.0388 3.32414 22.0388 3.4132C22.0393 3.47508 22.0393 3.53648 22.0398 3.59977C22.0402 3.76898 22.0407 3.93773 22.0407 4.10648C22.0407 4.21242 22.0412 4.31789 22.0412 4.42383C22.0421 4.7543 22.0421 5.08523 22.0426 5.4157C22.0426 5.79727 22.0435 6.17836 22.0449 6.55992C22.0459 6.85477 22.0463 7.15008 22.0463 7.44492C22.0463 7.62117 22.0468 7.79695 22.0477 7.9732C22.0482 8.13914 22.0487 8.30461 22.0482 8.47055C22.0482 8.56008 22.0487 8.64914 22.0492 8.73867C22.0477 9.10664 22.0276 9.39961 21.7824 9.69164C21.4918 9.93492 21.294 10.0474 20.9134 10.0418C20.6392 10.0137 20.3977 9.89789 20.2032 9.70336C20.004 9.41555 19.9618 9.17836 19.959 8.83523C19.9585 8.80008 19.9581 8.76445 19.9576 8.72836C19.9562 8.61211 19.9552 8.49586 19.9538 8.38008C19.9529 8.29945 19.952 8.21836 19.951 8.13773C19.9487 7.92586 19.9463 7.71398 19.944 7.50164C19.9417 7.28508 19.9388 7.06852 19.9365 6.85242C19.9313 6.42773 19.9267 6.00305 19.922 5.57836C19.8671 5.63367 19.8671 5.63367 19.8109 5.68992C18.9198 6.5843 18.0282 7.4782 17.1362 8.37164C16.7049 8.80383 16.2737 9.23602 15.8424 9.6682C15.467 10.0455 15.091 10.4224 14.7146 10.7988C14.5159 10.998 14.3167 11.1977 14.1179 11.3974C13.9309 11.5854 13.7434 11.7734 13.5554 11.9609C13.487 12.0293 13.4181 12.0982 13.3496 12.1676C13.2559 12.2618 13.1617 12.356 13.0674 12.4498C13.0407 12.477 13.014 12.5041 12.9863 12.5323C12.6999 12.8154 12.4206 13.016 12.0118 13.0432C11.7352 13.0385 11.5201 12.9602 11.3087 12.7826C11.0659 12.4924 10.9506 12.2932 10.9595 11.9126C11.0213 11.253 11.769 10.7248 12.212 10.2832C12.2799 10.2152 12.3474 10.1473 12.4154 10.0793C12.5987 9.89602 12.782 9.7132 12.9657 9.52992C13.1574 9.3382 13.3496 9.14648 13.5413 8.9543C13.9046 8.59148 14.2674 8.22914 14.6307 7.86633C15.0442 7.45336 15.4576 7.03992 15.8715 6.62648C16.7213 5.77711 17.5717 4.92773 18.422 4.07836C18.3554 4.07789 18.3554 4.07789 18.2874 4.07742C17.8684 4.07508 17.4488 4.07133 17.0298 4.06711C16.8142 4.06523 16.5985 4.06336 16.3829 4.06195C16.1748 4.06102 15.9667 4.05914 15.7585 4.0568C15.6793 4.05586 15.6001 4.05539 15.5209 4.05492C15.4093 4.05445 15.2977 4.05352 15.1867 4.05164C15.1543 4.05164 15.1215 4.05211 15.0882 4.05211C14.7521 4.04555 14.4446 3.94477 14.2032 3.70336C14.0045 3.41648 13.9332 3.16102 13.9688 2.81273C14.0354 2.54789 14.1446 2.30883 14.3752 2.14898C14.6167 2.00508 14.7976 1.96336 15.0746 1.96242Z" fill="white"/>
</svg>
