<svg width="18" height="18" viewBox="0 0 18 18" fill="none" xmlns="http://www.w3.org/2000/svg">
<g clip-path="url(#clip0_1343_10373)">
<path d="M7.80395 0.513239C7.92172 0.513942 8.0395 0.513591 8.15727 0.512888C10.3841 0.503044 13.0711 0.867614 14.8359 2.35508C14.8869 2.39726 14.8869 2.39726 14.9389 2.4405C15.3931 2.8339 15.7967 3.38164 15.866 3.99582C15.8709 4.09215 15.872 4.18777 15.8709 4.28445C15.8706 4.33508 15.8706 4.33508 15.8702 4.38711C15.8642 4.6448 15.8284 4.86347 15.7148 5.09726C15.6993 5.12996 15.6842 5.1623 15.6684 5.19605C15.5482 5.433 15.3973 5.63621 15.2226 5.83554C15.192 5.8707 15.192 5.8707 15.1607 5.90656C14.7814 6.31156 14.259 6.64976 13.7461 6.85508C13.7461 9.66265 13.7461 12.4702 13.7461 15.3629C9.91754 15.3629 6.08903 15.3629 2.1445 15.3629C2.1445 12.5553 2.1445 9.74773 2.1445 6.85508C2.08649 6.83187 2.02848 6.80867 1.96871 6.78476C1.52329 6.56715 1.13129 6.28273 0.773402 5.94101C0.749144 5.91957 0.725238 5.89812 0.700277 5.87597C0.317074 5.52125 0.0154334 5.00761 -0.00952758 4.48027C-0.0306213 3.70894 0.223207 3.17492 0.738246 2.60117C0.826488 2.51117 0.920004 2.43277 1.0195 2.35508C1.05571 2.32625 1.09227 2.29742 1.12953 2.26789C2.9552 0.854958 5.55993 0.501638 7.80395 0.513239Z" fill="white"/>
<path d="M16.875 4.5C17.0385 4.55027 17.1408 4.64379 17.2575 4.76367C17.2758 4.78266 17.2944 4.80164 17.3134 4.82098C17.7704 5.29594 18.0155 5.82328 18.0127 6.48105C17.9993 7.13461 17.666 7.60078 17.2266 8.05078C17.2055 8.07398 17.1847 8.09684 17.1633 8.12074C16.895 8.41008 16.5368 8.60941 16.2004 8.80875C16.1613 8.8323 16.1613 8.8323 16.1212 8.85586C15.9346 8.96484 15.9346 8.96484 15.8555 8.96484C15.8555 11.7724 15.8555 14.58 15.8555 17.4727C12.027 17.4727 8.19844 17.4727 4.25391 17.4727C4.25391 17.1246 4.25391 16.7766 4.25391 16.418C7.73438 16.418 11.2148 16.418 14.8008 16.418C14.7839 13.4687 14.7839 13.4687 14.7628 10.5195C14.7607 9.94957 14.7607 9.94957 14.7604 9.68273C14.76 9.49605 14.7586 9.30973 14.7561 9.12305C14.7533 8.88504 14.7526 8.64738 14.753 8.40937C14.753 8.32219 14.7523 8.23465 14.7505 8.14746C14.7393 7.51008 14.7393 7.51008 14.8416 7.35715C14.952 7.24816 15.082 7.19543 15.2227 7.13672C15.2849 7.09172 15.3461 7.04496 15.4051 6.99609C15.4477 6.96094 15.4477 6.96094 15.4909 6.92543C15.5183 6.90223 15.5461 6.87938 15.5742 6.85547C15.6009 6.83332 15.6277 6.81152 15.6551 6.78902C16.3614 6.18926 16.7291 5.39965 16.875 4.5Z" fill="white"/>
<path d="M5.00009 8.9999L11.0048 6.99984" stroke="#1E1E1E" stroke-linecap="round"/>
<path d="M7 11L9.90673 10.0002" stroke="#1E1E1E" stroke-linecap="round"/>
<path d="M6 6L8.90673 5.00023" stroke="#1E1E1E" stroke-linecap="round"/>
</g>
<defs>
<clipPath id="clip0_1343_10373">
<rect width="18" height="18" fill="white"/>
</clipPath>
</defs>
</svg>
