<svg width="18" height="18" viewBox="0 0 18 18" fill="none" xmlns="http://www.w3.org/2000/svg">
<g clip-path="url(#clip0_1330_11804)">
<path d="M7.35683 0.402263C7.98015 0.669802 8.4857 0.693357 9.13609 0.507732C9.1832 0.495075 9.23031 0.482419 9.27742 0.469763C9.3966 0.437419 9.51543 0.404372 9.63425 0.370974C9.78402 0.329138 9.93449 0.288357 10.085 0.247575C10.1602 0.227185 10.2354 0.206443 10.3103 0.185349C10.6689 0.0865597 11.0205 0.0229269 11.3928 0.0243332C11.4364 0.02363 11.4364 0.02363 11.481 0.0229269C11.5088 0.0225754 11.5366 0.0225754 11.5654 0.0225754C11.6027 0.0225754 11.6027 0.0225753 11.6403 0.0222238C11.7271 0.0394503 11.7573 0.0735519 11.8125 0.141052C11.9697 0.4557 11.8013 0.933122 11.7025 1.24601C11.404 2.12527 10.9262 2.96375 10.2822 3.63488C10.1897 3.73261 10.1046 3.83386 10.0196 3.93793C10.0632 3.95093 10.0632 3.95093 10.1075 3.96429C10.2488 4.01457 10.3771 4.0782 10.5096 4.14886C10.5357 4.16258 10.5617 4.17664 10.5887 4.1907C11.6677 4.77605 12.6791 5.67183 13.4649 6.6098C13.492 6.64074 13.519 6.67168 13.5468 6.70332C14.0376 7.26793 14.4672 7.87929 14.8711 8.50824C14.8929 8.54199 14.8929 8.54199 14.9151 8.57644C15.9722 10.2288 16.8149 12.3842 16.3895 14.372C16.1104 15.4931 15.4336 16.3548 14.4584 16.9577C12.9351 17.8696 11.0644 18.0233 9.32734 18.0117C9.23031 18.0113 9.13328 18.0113 9.03625 18.0117C8.24136 18.0127 7.44754 17.9811 6.66004 17.8686C6.59711 17.8595 6.59711 17.8595 6.53312 17.8507C4.9655 17.6172 3.31843 17.0723 2.31543 15.7694C1.55535 14.7355 1.38871 13.4284 1.56765 12.1828C1.91535 10.0217 3.04105 8.03539 4.46488 6.39886C4.48703 6.37285 4.50953 6.34683 4.53238 6.32047C4.59144 6.25226 4.65121 6.18476 4.71097 6.11761C4.73418 6.0909 4.75738 6.06453 4.78129 6.03711C5.0766 5.70383 5.38773 5.38285 5.7305 5.09808C5.74914 5.08226 5.76777 5.06644 5.78675 5.05027C6.97715 4.0434 6.97715 4.0434 7.31254 4.0434C7.31254 4.02019 7.31254 3.99699 7.31254 3.97308C7.2925 3.96394 7.27281 3.9548 7.25242 3.94566C6.35066 3.46543 5.68832 2.31547 5.39863 1.36906C5.30336 1.03929 5.25062 0.66488 5.37683 0.335818C5.45101 0.203982 5.54488 0.0893722 5.6841 0.0225754C6.26734 -0.135628 6.83617 0.176208 7.35683 0.402263ZM8.55531 7.38535C8.48851 7.53054 8.49625 7.65851 8.50117 7.81601C8.50152 7.84554 8.50222 7.87472 8.50257 7.90496C8.50398 7.97703 8.50574 8.04945 8.50785 8.12152C8.48535 8.12222 8.4632 8.12328 8.44035 8.12398C7.94465 8.14859 7.51152 8.39222 7.17613 8.74976C6.87519 9.1182 6.78449 9.51758 6.82035 9.9848C6.8875 10.3575 7.08718 10.6644 7.38285 10.8989C7.73265 11.1228 8.06558 11.2286 8.47269 11.3559C8.48429 11.936 8.4959 12.5161 8.50785 13.1137C8.15629 12.9857 7.89543 12.8877 7.72105 12.5487C7.68238 12.4605 7.64933 12.3712 7.61558 12.2809C7.54527 12.1371 7.48445 12.0724 7.34769 11.9887C7.21058 11.9585 7.08964 11.9557 6.96519 12.026C6.8889 12.0875 6.82914 12.1466 6.78519 12.2348C6.74617 12.6359 6.92582 12.9597 7.16699 13.2709C7.47636 13.6361 7.9007 13.8819 8.36722 13.9926C8.41363 13.9926 8.46004 13.9926 8.50785 13.9926C8.50609 14.0383 8.50468 14.084 8.50293 14.1311C8.50152 14.192 8.50011 14.2528 8.49906 14.3132C8.498 14.3435 8.4966 14.3734 8.49554 14.4046C8.49238 14.6019 8.51347 14.7165 8.64847 14.8715C8.78593 14.9559 8.88437 14.9896 9.04187 14.9594C9.17722 14.9172 9.24086 14.8518 9.31644 14.7309C9.37445 14.6149 9.36496 14.4852 9.37129 14.3572C9.37375 14.315 9.37375 14.315 9.37586 14.2718C9.37972 14.2021 9.38324 14.1325 9.38675 14.0629C9.42226 14.0573 9.45812 14.0517 9.49504 14.0461C10.0944 13.9469 10.6035 13.7409 10.9807 13.2399C11.07 13.1 11.1305 12.9552 11.1797 12.7973C11.1896 12.766 11.1896 12.766 11.2001 12.7344C11.2771 12.3301 11.2339 11.8941 11.0159 11.5429C10.6538 11.0532 10.0779 10.8029 9.49222 10.6879C9.44582 10.6879 9.39941 10.6879 9.3516 10.6879C9.3516 10.1195 9.3516 9.55097 9.3516 8.96527C10.0347 9.17551 10.0347 9.17551 10.1795 9.40226C10.2235 9.4898 10.2628 9.57804 10.3008 9.6684C10.4038 9.86316 10.4038 9.86316 10.5849 9.97109C10.7153 9.98586 10.8036 9.99465 10.927 9.94508C11.0641 9.82765 11.1372 9.75804 11.1621 9.57383C11.1432 9.24758 10.967 8.99234 10.7578 8.75433C10.7297 8.72094 10.7297 8.72094 10.7009 8.68719C10.368 8.32332 9.86031 8.16441 9.38675 8.08636C9.38675 8.04347 9.3864 8.00058 9.3864 7.95664C9.39379 7.60578 9.39379 7.60578 9.26371 7.29289C9.15543 7.19761 9.04363 7.16773 8.90089 7.16281C8.74339 7.18215 8.65129 7.26547 8.55531 7.38535Z" fill="white"/>
<path d="M9.35156 11.5664C9.6975 11.6096 10.0709 11.7018 10.3008 11.9883C10.3999 12.1904 10.4101 12.4147 10.3482 12.6309C10.2502 12.8496 10.1011 12.9923 9.88207 13.0873C9.69117 13.1548 9.55828 13.1836 9.35156 13.1836C9.35156 12.6499 9.35156 12.1163 9.35156 11.5664Z" fill="white"/>
<path d="M8.5076 8.96484C8.5076 9.45211 8.5076 9.93938 8.5076 10.4414C8.19541 10.3968 7.93948 10.305 7.73416 10.0547C7.64557 9.90281 7.64135 9.76957 7.66385 9.59766C7.72959 9.38039 7.86073 9.22676 8.05057 9.10547C8.19998 9.03234 8.33955 8.96484 8.5076 8.96484Z" fill="white"/>
</g>
<defs>
<clipPath id="clip0_1330_11804">
<rect width="18" height="18" fill="white"/>
</clipPath>
</defs>
</svg>
