<svg width="16" height="16" viewBox="0 0 16 16" fill="none" xmlns="http://www.w3.org/2000/svg">
<path d="M10.1588 2.20645C9.42754 3.21895 8.79824 4.10137 8.76309 4.16816C8.71387 4.26309 8.70332 4.35098 8.71035 4.54082C8.7209 4.7623 8.73496 4.81152 8.87559 5.02246C9.18848 5.5041 9.27988 5.9084 9.1498 6.21777C9.11465 6.30215 8.9459 6.49551 8.71738 6.71348L8.34473 7.07207L8.65059 7.34629L8.95293 7.62402L9.31504 7.26895C9.51191 7.07207 9.7334 6.88926 9.80371 6.85762C10.0814 6.7416 10.4682 6.81191 10.8479 7.05098C11.2873 7.3252 11.4771 7.37441 11.7408 7.28652C11.8287 7.25488 12.1803 7.02988 12.5248 6.78027C15.8752 4.35801 15.6643 4.51973 15.6643 4.3791C15.6643 3.82715 15.3549 3.05723 14.8732 2.41035C13.9873 1.22207 12.6725 0.371289 11.7268 0.371289H11.4877L10.1588 2.20645ZM12.342 1.83027C12.5178 2.00605 12.5037 2.03066 11.5334 3.21191C11.0412 3.81309 10.6018 4.32988 10.5596 4.35801C10.4471 4.43887 10.3311 4.42832 10.2326 4.32637C10.0498 4.14707 10.0674 4.11543 10.999 2.9834C11.4666 2.41035 11.892 1.89707 11.9447 1.84082C12.0643 1.71426 12.2225 1.70723 12.342 1.83027ZM13.2842 2.76543C13.3158 2.80762 13.3439 2.88848 13.3439 2.94824C13.3439 3.04668 13.2209 3.18027 12.2963 4.10488C11.1713 5.22988 11.1713 5.2334 10.9744 5.07871C10.8971 5.01895 10.883 4.98027 10.89 4.87129C10.9006 4.75176 10.985 4.65332 11.8498 3.76387C12.3736 3.22598 12.8482 2.7584 12.9045 2.71973C13.0311 2.63887 13.1928 2.65996 13.2842 2.76543ZM14.1139 3.62324C14.3002 3.71816 14.3143 3.92559 14.1455 4.0873C13.91 4.3123 12.0924 5.79238 11.9869 5.84512C11.892 5.89082 11.8639 5.89434 11.776 5.85215C11.6283 5.78184 11.565 5.63066 11.6248 5.50059C11.674 5.40566 13.7518 3.66543 13.8889 3.60566C13.9873 3.56348 14.0014 3.56348 14.1139 3.62324Z" fill="white"/>
<path d="M0.549705 1.69648C0.289548 2.39609 0.310642 3.42266 0.602439 4.30859C0.729002 4.6918 1.10166 5.43359 1.36885 5.83438C1.81533 6.49531 2.22666 6.9418 4.63134 9.35352L7.04658 11.7793L7.41572 11.4102L7.78838 11.0445L7.68291 10.9355C7.44384 10.6895 7.37353 10.3063 7.51064 10.0039C7.55986 9.89492 7.79189 9.63477 8.27353 9.14961L8.96611 8.45352L8.3333 7.83125C6.37861 5.91172 4.20595 4.00977 2.5501 2.77227C2.03681 2.38906 1.14385 1.78789 0.823923 1.60859L0.623533 1.49609L0.549705 1.69648Z" fill="white"/>
<path d="M8.67452 9.55767C7.87999 10.3522 7.89405 10.3206 8.19991 10.6405C8.43546 10.8866 8.51632 10.9182 8.67804 10.8163C8.93468 10.6581 8.8503 10.5913 10.6398 12.3807L12.278 14.0155L12.2288 14.1983C12.0882 14.7116 12.3694 15.2917 12.8687 15.5272C13.1394 15.6573 13.4839 15.6678 13.7827 15.5553C14.0534 15.4534 14.3276 15.1792 14.4331 14.9014C14.5351 14.6307 14.521 14.2159 14.4015 13.9768C14.3452 13.8643 13.5999 13.0944 11.8562 11.3471C10.4991 9.9901 9.38116 8.87916 9.37062 8.87916C9.36007 8.87916 9.04718 9.18502 8.67452 9.55767Z" fill="white"/>
<path d="M4.58963 10.7951C4.40681 10.9779 4.24158 11.1291 4.224 11.1291C4.20642 11.1291 4.15369 11.0939 4.10799 11.0518C4.02713 10.9779 4.02713 10.9779 3.94978 11.0447C3.71072 11.2486 0.652127 14.1104 0.553689 14.2193C0.19158 14.6236 0.318142 15.2705 0.81033 15.5342C1.0072 15.6396 1.38689 15.6396 1.58377 15.5342C1.67517 15.4885 2.28338 14.8627 3.36267 13.7096L5.00447 11.9553L4.93064 11.8744L4.85681 11.7936L5.21541 11.435L5.574 11.0764L5.26463 10.767C5.09588 10.5982 4.94822 10.4611 4.94119 10.4611C4.93064 10.4611 4.77244 10.6123 4.58963 10.7951Z" fill="white"/>
</svg>
