<svg width="18" height="18" viewBox="0 0 18 18" fill="none" xmlns="http://www.w3.org/2000/svg">
<path d="M6.51094 0.140625C6.44766 0.154688 6.33867 0.207422 6.26836 0.256641C6.16992 0.326954 5.75508 0.864844 5.43164 1.34297C5.41406 1.37109 5.04844 1.51875 4.62305 1.66992C4.19766 1.82109 3.74062 1.99688 3.60352 2.06719C3.1043 2.31328 2.61914 2.7457 2.31328 3.2168C2.22187 3.35039 1.68398 4.35586 1.11094 5.44922C0.358594 6.88711 0.0703125 7.46719 0.0703125 7.55156C0.0703125 7.68516 0.137109 7.8293 0.242578 7.92422C0.28125 7.95938 1.00898 8.27227 1.85273 8.61328C3.04102 9.09492 3.40664 9.25664 3.45586 9.32695C3.52617 9.41484 3.52266 9.45352 3.29062 13.2609C3.16406 15.3738 3.05859 17.1984 3.05859 17.3145C3.05859 17.5676 3.13594 17.7152 3.31523 17.7996C3.42773 17.8559 3.87773 17.8594 9 17.8594C14.1223 17.8594 14.5723 17.8559 14.6848 17.7996C14.8711 17.7117 14.9414 17.5711 14.9414 17.2863C14.9414 17.1563 14.8395 15.3703 14.7129 13.3172C14.5863 11.2676 14.4844 9.54492 14.4844 9.49219C14.4844 9.43945 14.5125 9.36211 14.5477 9.31992C14.5863 9.2707 15.1523 9.02109 16.1156 8.63086C16.9453 8.29336 17.6625 7.99102 17.7082 7.96289C17.8312 7.88203 17.9297 7.69922 17.9297 7.55859C17.9297 7.46367 17.6766 6.95391 16.8891 5.44922C16.3195 4.35586 15.7641 3.33281 15.6586 3.17813C15.4441 2.85469 15.0398 2.45391 14.741 2.26055C14.4352 2.06367 14.0379 1.89492 13.2891 1.63477C12.9129 1.50469 12.5895 1.37461 12.5684 1.34648C12.1957 0.801563 11.8336 0.330469 11.7352 0.260157C11.5348 0.116016 11.4152 0.105469 10.8422 0.186329C10.3957 0.24961 10.132 0.260157 9.03516 0.260157C7.81875 0.263672 7.33008 0.235547 6.69727 0.123047C6.65859 0.116016 6.57422 0.123047 6.51094 0.140625ZM7.75195 0.653907C8.62734 0.720704 9.7875 0.706641 10.6488 0.61875C11.373 0.544922 11.4258 0.594141 11.0777 1.02656C10.7227 1.46953 9.92461 2.08477 9.25312 2.43633L8.99648 2.56992L8.72578 2.42578C8.32852 2.21133 7.80469 1.85273 7.44961 1.55742C7.11562 1.27969 6.71484 0.81211 6.71484 0.703125C6.71484 0.622266 6.81328 0.5625 6.9082 0.580079C6.94687 0.590625 7.32656 0.622266 7.75195 0.653907ZM5.57227 2.11992C5.7832 2.56289 6.16289 3.10078 6.53203 3.4875C6.95391 3.92344 7.06641 3.99023 7.41797 3.99023C7.75898 3.99023 7.81523 3.95508 8.43398 3.41719C8.72227 3.16758 8.95781 2.98828 9 2.98828C9.04219 2.98828 9.28477 3.17109 9.57656 3.42422C9.8543 3.6668 10.1355 3.8918 10.1988 3.92695C10.3746 4.01836 10.8 4.01484 10.9863 3.91289C11.3941 3.69492 12.1711 2.71406 12.4699 2.03906C12.5191 1.93359 12.5613 1.84219 12.5684 1.83516C12.5719 1.83164 12.6633 1.85977 12.7723 1.89844L12.9691 1.97227L12.8918 2.1375C12.5824 2.79844 12.2555 3.27656 11.7457 3.80391C11.468 4.0957 11.3309 4.2082 11.1586 4.29258C10.7719 4.48594 10.2727 4.46836 9.93164 4.25039C9.67852 4.08867 9.66797 4.10625 9.66797 4.64063V5.10469L9.56602 5.20664L9.46406 5.30859H9H8.53594L8.43398 5.20664L8.33203 5.10469V4.64063C8.33203 4.10625 8.32148 4.08867 8.06836 4.25039C7.72734 4.46484 7.22461 4.48242 6.83437 4.28906C6.67266 4.21172 6.52852 4.08867 6.2543 3.80391C5.80781 3.33984 5.51953 2.93906 5.2418 2.39414L5.02734 1.97578L5.21367 1.90547C5.31211 1.8668 5.40352 1.83164 5.41406 1.83164C5.42461 1.82813 5.49492 1.9582 5.57227 2.11992Z" fill="white"/>
<path d="M8.82438 3.72656C8.68024 3.8707 8.78922 4.11328 9.00016 4.11328C9.13024 4.11328 9.24625 4.0043 9.24625 3.88477C9.24625 3.76523 9.13024 3.65625 9.00016 3.65625C8.94039 3.65625 8.86305 3.68789 8.82438 3.72656Z" fill="white"/>
</svg>
