<svg width="18" height="18" viewBox="0 0 18 18" fill="none" xmlns="http://www.w3.org/2000/svg">
<g clip-path="url(#clip0_1364_10630)">
<path d="M1.41803 -0.00453125C1.45635 -0.00488281 1.49467 -0.00488281 1.53404 -0.00523438C1.57623 -0.00523438 1.61842 -0.00523438 1.66166 -0.00523438C1.70631 -0.00523438 1.75131 -0.00558594 1.79737 -0.00558594C1.92147 -0.0059375 2.04592 -0.00628906 2.17002 -0.00628906C2.30397 -0.00664063 2.43791 -0.00699219 2.57221 -0.00734375C2.89565 -0.00839844 3.21944 -0.00875 3.54322 -0.00910156C3.63463 -0.00945313 3.72604 -0.00945312 3.81744 -0.00945312C4.38592 -0.0105078 4.95404 -0.0112109 5.52217 -0.0115625C5.65365 -0.0119141 5.78549 -0.0119141 5.91697 -0.0119141C5.94967 -0.0119141 5.98236 -0.0119141 6.01611 -0.0122656C6.54557 -0.0126172 7.07502 -0.0136719 7.60447 -0.0150781C8.14869 -0.0168359 8.69256 -0.0175391 9.23643 -0.0175391C9.54158 -0.0178906 9.84674 -0.0182422 10.1522 -0.0192969C10.4121 -0.0203516 10.6722 -0.0207031 10.9324 -0.0203516C11.0649 -0.02 11.1974 -0.0203516 11.33 -0.0210547C11.4741 -0.0221094 11.6183 -0.0217578 11.7624 -0.0210547C11.8243 -0.0217578 11.8243 -0.0217578 11.8876 -0.0224609C12.3611 -0.0182422 12.7267 0.156484 13.0663 0.477813C13.4773 0.913398 13.5097 1.47449 13.5114 2.04367C13.5121 2.08691 13.5125 2.1298 13.5128 2.17445C13.5139 2.29117 13.5146 2.40789 13.5149 2.52461C13.5153 2.59773 13.5156 2.67086 13.516 2.74398C13.5171 2.97355 13.5178 3.20348 13.5185 3.43305C13.5188 3.69672 13.5206 3.96074 13.5227 4.22441C13.5248 4.42938 13.5255 4.63434 13.5258 4.83965C13.5258 4.96164 13.5262 5.08363 13.528 5.20562C13.5294 5.34133 13.5294 5.47738 13.5287 5.61309C13.5294 5.65316 13.5304 5.69324 13.5311 5.73438C13.5283 5.96395 13.4991 6.09262 13.3335 6.25504C13.3072 6.2793 13.2808 6.30355 13.2537 6.32852C13.2063 6.37633 13.1588 6.42414 13.1117 6.47195C13.0178 6.56687 12.9226 6.66039 12.8273 6.75426C12.7844 6.79645 12.7415 6.83898 12.699 6.88152C12.6072 6.97223 12.5151 7.06293 12.4233 7.15363C12.2778 7.29777 12.1322 7.44191 11.9871 7.58641C11.9501 7.62297 11.9501 7.62297 11.9125 7.66023C11.8622 7.71016 11.812 7.76043 11.7617 7.81035C11.4238 8.14574 11.086 8.48113 10.7471 8.81582C10.5179 9.04187 10.289 9.26863 10.0612 9.49574C9.94061 9.61563 9.82002 9.73551 9.69873 9.85434C9.58447 9.96684 9.47092 10.0797 9.35807 10.1929C9.31658 10.234 9.2751 10.2748 9.23361 10.3156C8.92424 10.6165 8.72596 10.9308 8.54279 11.3207C8.52205 11.3636 8.50131 11.4065 8.48057 11.4497C8.42748 11.5608 8.37615 11.6723 8.32518 11.7841C8.296 11.8473 8.26682 11.911 8.23764 11.9743C8.2176 12.0179 8.19756 12.0614 8.17752 12.105C8.08401 12.3086 7.98908 12.5118 7.89416 12.7146C7.8119 12.8897 7.73033 13.0652 7.64877 13.2402C7.61361 13.3162 7.57811 13.3921 7.5426 13.468C7.26522 14.0632 7.04373 14.5688 7.27717 15.223C7.4867 15.6748 7.77041 15.9128 8.22639 16.102C8.76569 16.2841 9.2417 16.0974 9.73143 15.8622C9.77432 15.8421 9.81721 15.8218 9.8601 15.8014C9.9501 15.7592 10.0397 15.7166 10.1297 15.6741C10.327 15.5802 10.5249 15.4885 10.7228 15.3964C10.7882 15.3658 10.8536 15.3352 10.919 15.3046C11.1247 15.2083 11.3307 15.1123 11.5371 15.0177C11.6327 14.9738 11.7287 14.9298 11.8243 14.8855C11.8696 14.8648 11.915 14.8441 11.9603 14.8233C12.3541 14.6444 12.6705 14.4486 12.9813 14.1483C13.0052 14.1258 13.0291 14.103 13.0537 14.0798C13.1556 13.9824 13.2565 13.8843 13.3543 13.7827C13.4295 13.7113 13.4295 13.7113 13.4998 13.7113C13.5012 14.0555 13.5026 14.4 13.5033 14.7446C13.5037 14.9045 13.504 15.0645 13.5051 15.2245C13.5058 15.3795 13.5062 15.5342 13.5065 15.6889C13.5065 15.7476 13.5069 15.8063 13.5072 15.865C13.5114 16.5291 13.4717 17.1 12.9872 17.607C12.6297 17.9301 12.2511 18.0162 11.7814 18.0141C11.7364 18.0145 11.6917 18.0145 11.6453 18.0148C11.5216 18.0155 11.3975 18.0152 11.2737 18.0152C11.1398 18.0152 11.0058 18.0155 10.8722 18.0159C10.61 18.0166 10.3481 18.0169 10.0862 18.0169C9.87311 18.0169 9.66006 18.0169 9.44701 18.0173C9.38549 18.0173 9.32397 18.0173 9.26244 18.0173C9.23186 18.0173 9.20127 18.0173 9.16963 18.0176C8.59166 18.018 8.01334 18.018 7.43502 18.018C6.90662 18.0176 6.37858 18.0183 5.85018 18.0197C5.30701 18.0208 4.76385 18.0211 4.22069 18.0211C3.91588 18.0211 3.61143 18.0211 3.30662 18.0222C3.04717 18.0229 2.78772 18.0229 2.52826 18.0222C2.39608 18.0218 2.26389 18.0218 2.1317 18.0225C1.98826 18.0236 1.84447 18.0229 1.70069 18.0222C1.65955 18.0225 1.61807 18.0229 1.57553 18.0236C1.10303 18.0183 0.737053 17.8436 0.397795 17.5226C0.132365 17.2414 -0.00579902 16.8923 -0.00509589 16.5112C-0.00509589 16.4848 -0.00544753 16.4584 -0.00544753 16.4314C-0.00579909 16.3431 -0.00579904 16.2545 -0.00579904 16.1659C-0.00579904 16.1023 -0.00615054 16.0383 -0.00615054 15.9743C-0.0065021 15.7986 -0.00685368 15.6224 -0.00685368 15.4466C-0.00720524 15.2568 -0.0075569 15.0673 -0.00790846 14.8775C-0.00896315 14.4194 -0.00931468 13.9613 -0.00966624 13.5029C-0.0100178 13.3735 -0.0100178 13.2441 -0.0103694 13.1147C-0.0110725 12.3111 -0.0117755 11.5074 -0.0124787 10.7037C-0.0124787 10.5177 -0.0124787 10.3314 -0.0124787 10.1454C-0.0128302 10.0758 -0.0128303 10.0758 -0.0128303 10.0052C-0.0131819 9.25563 -0.0142365 8.50609 -0.0156427 7.75691C-0.0174006 6.98734 -0.0181037 6.21812 -0.0184553 5.44855C-0.0184553 5.01648 -0.0188069 4.58441 -0.0198616 4.1527C-0.0209163 3.78461 -0.0212678 3.41652 -0.0209162 3.04879C-0.0209162 2.86105 -0.0209162 2.67332 -0.0216194 2.48559C-0.0226741 2.31367 -0.022674 2.14176 -0.0219709 1.96984C-0.0216193 1.90762 -0.021971 1.84574 -0.0223225 1.78352C-0.0268928 1.22875 0.0866619 0.811445 0.477248 0.398711C0.730021 0.16 1.06998 -0.00382813 1.41803 -0.00453125ZM2.39045 3.65664C2.29061 3.80641 2.29764 3.93789 2.32014 4.11367C2.39713 4.27082 2.47764 4.3566 2.63654 4.43008C2.80002 4.47438 2.96244 4.47016 3.13049 4.4698C3.16283 4.4698 3.19483 4.47016 3.22787 4.47016C3.3358 4.47016 3.44338 4.47016 3.55096 4.47016C3.6283 4.47051 3.70565 4.47051 3.78264 4.47051C3.99252 4.47086 4.2024 4.47086 4.41194 4.47086C4.58701 4.47121 4.76209 4.47121 4.93752 4.47121C5.3267 4.47156 5.71623 4.47156 6.10576 4.47156C6.12897 4.47156 6.15252 4.47156 6.17643 4.47156C6.21158 4.47156 6.21158 4.47156 6.24744 4.47156C6.62643 4.47156 7.00541 4.47191 7.3844 4.47262C7.77393 4.47297 8.16311 4.47332 8.55264 4.47332C8.77096 4.47332 8.98963 4.47332 9.20795 4.47367C9.41362 4.47402 9.61928 4.47402 9.82459 4.47367C9.90018 4.47367 9.97541 4.47367 10.051 4.47402C10.154 4.47438 10.2567 4.47402 10.3597 4.47367C10.3896 4.47402 10.4194 4.47402 10.45 4.47438C10.6719 4.47297 10.8582 4.45996 11.0322 4.30914C11.169 4.14883 11.1978 4.05848 11.1922 3.85246C11.1711 3.70305 11.1155 3.61516 11.0037 3.51602C10.7928 3.41301 10.5829 3.39543 10.3519 3.39719C10.3196 3.39719 10.2872 3.39684 10.2542 3.39684C10.147 3.39648 10.0394 3.39684 9.93217 3.39719C9.85518 3.39719 9.77783 3.39719 9.70049 3.39684C9.49131 3.39648 9.28213 3.39684 9.07295 3.39754C8.85393 3.39789 8.6349 3.39754 8.41588 3.39754C8.04779 3.39754 7.68006 3.39789 7.31233 3.39859C6.93404 3.3993 6.55611 3.39965 6.17783 3.3993C5.72151 3.39895 5.26553 3.3993 4.8092 3.39965C4.63518 3.4 4.46115 3.4 4.28678 3.39965C4.08217 3.39965 3.87721 3.4 3.67225 3.4007C3.59701 3.4007 3.52178 3.4007 3.44654 3.4007C3.34389 3.4007 3.24123 3.4007 3.13858 3.40141C3.10904 3.40105 3.07916 3.40105 3.04858 3.4007C2.77365 3.40281 2.57608 3.43902 2.39045 3.65664ZM2.46709 6.37879C2.32893 6.54121 2.30432 6.63051 2.30889 6.83793C2.32541 6.96801 2.37358 7.04078 2.46076 7.13711C2.65061 7.27844 2.83553 7.28195 3.06651 7.2823C3.10447 7.2823 3.10447 7.2823 3.14315 7.28266C3.22752 7.28266 3.3119 7.28266 3.39627 7.28266C3.45674 7.28301 3.51756 7.28301 3.57803 7.28301C3.74256 7.28336 3.90674 7.28336 4.07127 7.28336C4.17428 7.28336 4.27694 7.28371 4.37959 7.28371C4.73819 7.28406 5.09678 7.28406 5.45537 7.28406C5.78971 7.28406 6.12369 7.28441 6.45803 7.28512C6.7449 7.28547 7.03213 7.28582 7.31901 7.28582C7.49057 7.28582 7.66178 7.28582 7.83299 7.28617C7.99436 7.28652 8.15537 7.28652 8.31674 7.28617C8.3758 7.28617 8.43487 7.28617 8.49393 7.28652C8.57479 7.28687 8.65565 7.28652 8.73651 7.28617C8.78151 7.28617 8.82686 7.28652 8.87326 7.28652C9.061 7.27352 9.20092 7.24609 9.34471 7.12164C9.48147 6.96133 9.5103 6.87098 9.50467 6.66496C9.48323 6.51484 9.42733 6.42871 9.31623 6.32852C9.02022 6.19211 8.71822 6.20828 8.39971 6.20969C8.33924 6.20969 8.27842 6.20969 8.21795 6.20934C8.05412 6.20898 7.89029 6.20934 7.72611 6.21004C7.55455 6.21039 7.38264 6.21004 7.21072 6.21004C6.92244 6.21004 6.63416 6.21039 6.34588 6.21109C6.0126 6.2118 5.67967 6.21215 5.34639 6.2118C5.02541 6.21145 4.70444 6.2118 4.38346 6.21215C4.24705 6.2125 4.11065 6.2125 3.97459 6.21215C3.81393 6.21215 3.65326 6.2125 3.4926 6.2132C3.43389 6.2132 3.37483 6.2132 3.31612 6.2132C3.23561 6.21285 3.1551 6.2132 3.07459 6.21391C3.00709 6.21391 3.00709 6.21391 2.93819 6.21391C2.7508 6.22727 2.61053 6.25469 2.46709 6.37879ZM2.46709 9.19129C2.32893 9.35371 2.30432 9.44301 2.30889 9.65043C2.32541 9.78051 2.37358 9.85328 2.46076 9.94961C2.63057 10.0758 2.7951 10.0945 3.00252 10.0948C3.04014 10.0948 3.07811 10.0952 3.11678 10.0952C3.17865 10.0952 3.17865 10.0952 3.24123 10.0952C3.28483 10.0955 3.32842 10.0955 3.37307 10.0955C3.49225 10.0959 3.61143 10.0959 3.73061 10.0959C3.80514 10.0959 3.87967 10.0962 3.9542 10.0962C4.21436 10.0966 4.47451 10.0966 4.73467 10.0966C4.97654 10.0966 5.21877 10.0969 5.461 10.0976C5.66912 10.098 5.87725 10.0983 6.08537 10.0983C6.20983 10.0983 6.33393 10.0983 6.45803 10.0987C6.5969 10.099 6.73541 10.099 6.87393 10.0987C6.93545 10.099 6.93545 10.099 6.99803 10.0994C7.35416 10.1011 7.35416 10.1011 7.65721 9.93414C7.79397 9.77383 7.82279 9.68348 7.81717 9.47746C7.79608 9.3277 7.74018 9.24051 7.62873 9.14102C7.38756 9.01621 7.13197 9.02043 6.86725 9.02219C6.82365 9.02219 6.78006 9.02219 6.73506 9.02184C6.61658 9.02184 6.49811 9.02184 6.37963 9.02254C6.25518 9.02289 6.13037 9.02254 6.00592 9.02254C5.79709 9.02254 5.58826 9.02289 5.37908 9.02359C5.13826 9.0243 4.89709 9.02465 4.65592 9.0243C4.42319 9.02395 4.1908 9.0243 3.95807 9.02465C3.85928 9.025 3.76049 9.025 3.66205 9.02465C3.52389 9.02465 3.38608 9.02535 3.24826 9.0257C3.20748 9.0257 3.1667 9.0257 3.12487 9.02535C2.76944 9.02465 2.76944 9.02465 2.46709 9.19129Z" fill="white"/>
<path d="M13.7502 7.28023C13.8673 7.33718 13.952 7.43421 14.0424 7.52632C14.0758 7.55972 14.0758 7.55972 14.1099 7.59382C14.1837 7.66765 14.2568 7.74183 14.3303 7.81601C14.3813 7.86698 14.4322 7.91831 14.4832 7.96929C14.6175 8.10429 14.7515 8.23929 14.8854 8.37429C15.0222 8.5121 15.1593 8.64956 15.2964 8.78702C15.565 9.05702 15.8336 9.32737 16.1018 9.59773C16.0435 9.7496 15.9281 9.8512 15.8149 9.96335C15.7928 9.9855 15.7706 10.008 15.7478 10.0309C15.6743 10.1043 15.6005 10.1778 15.527 10.2509C15.4757 10.3023 15.4243 10.3536 15.373 10.4046C15.2654 10.5121 15.1579 10.6194 15.0503 10.7266C14.9125 10.8637 14.7754 11.0008 14.6383 11.1383C14.5321 11.2441 14.4263 11.3499 14.3201 11.4557C14.2695 11.506 14.2188 11.5566 14.1682 11.6073C14.0972 11.6783 14.0262 11.7489 13.9548 11.82C13.9344 11.8403 13.9137 11.8611 13.8926 11.8822C13.7636 12.0101 13.63 12.1304 13.4925 12.2492C13.4204 12.3128 13.3543 12.3803 13.29 12.4517C13.2661 12.4777 13.2422 12.5041 13.2176 12.5308C13.1926 12.5582 13.1677 12.5857 13.1417 12.6141C12.4378 13.3696 11.8061 13.9146 10.8393 14.2841C10.6072 14.3737 10.3847 14.4827 10.1604 14.5899C10.0824 14.6261 10.0043 14.662 9.92626 14.6982C9.87107 14.7235 9.87107 14.7235 9.81447 14.7495C9.63025 14.8343 9.44603 14.919 9.26146 15.003C9.2133 15.0251 9.21329 15.0251 9.16372 15.0476C9.11978 15.0677 9.11978 15.0677 9.07478 15.0881C9.04912 15.0997 9.02345 15.1113 8.99708 15.1232C8.81392 15.2023 8.65818 15.2164 8.46833 15.1478C8.31787 15.0498 8.21451 14.9397 8.1565 14.7657C8.14138 14.5716 8.18076 14.4317 8.26267 14.2587C8.27392 14.2345 8.28482 14.2102 8.29642 14.1849C8.33122 14.109 8.36673 14.033 8.40259 13.9571C8.42439 13.91 8.44619 13.8625 8.46798 13.8154C8.53478 13.672 8.60263 13.5289 8.67048 13.3858C8.72005 13.281 8.76962 13.1763 8.81884 13.0715C8.83115 13.0455 8.84345 13.0195 8.85611 12.9928C8.93626 12.823 9.01572 12.6532 9.09447 12.4826C9.10466 12.4609 9.11486 12.4387 9.1254 12.4162C9.17251 12.3142 9.21962 12.2119 9.26638 12.11C9.29943 12.0383 9.33283 11.9669 9.36658 11.8955C9.40279 11.8185 9.43794 11.7409 9.47205 11.6632C9.61935 11.3429 9.81095 11.1073 10.0616 10.8609C10.101 10.8212 10.1404 10.7818 10.1797 10.7421C10.2852 10.6355 10.3914 10.5301 10.4976 10.425C10.6093 10.3142 10.7204 10.2028 10.8315 10.0913C11.0175 9.90499 11.2042 9.71937 11.3912 9.53374C11.6074 9.31929 11.8229 9.10378 12.0381 8.88827C12.2455 8.68015 12.4533 8.47273 12.6614 8.26566C12.75 8.17741 12.8383 8.08917 12.9265 8.00093C13.0299 7.89722 13.1339 7.79386 13.238 7.69085C13.2763 7.65288 13.3143 7.61491 13.3522 7.57659C13.4039 7.52456 13.4563 7.47323 13.5083 7.42191C13.5375 7.39308 13.5667 7.36425 13.5966 7.33437C13.676 7.27741 13.676 7.27741 13.7502 7.28023Z" fill="white"/>
<path d="M16.0664 5.35234C16.1318 5.35164 16.1318 5.35164 16.1982 5.35059C16.6324 5.40684 16.9341 5.72078 17.2255 6.01785C17.2923 6.08605 17.3605 6.1532 17.4287 6.22C17.7033 6.49352 17.9761 6.77828 18.0281 7.18047C18.0274 7.22406 18.0271 7.2673 18.0264 7.3123C18.0271 7.3777 18.0271 7.3777 18.0281 7.44414C17.9698 7.89906 17.6316 8.19965 17.3187 8.49883C17.2758 8.54102 17.2325 8.58285 17.1896 8.62504C17.0852 8.72734 16.9805 8.82859 16.875 8.92949C16.7214 8.87078 16.6219 8.75582 16.5087 8.64156C16.4862 8.61906 16.464 8.59691 16.4412 8.57371C16.3673 8.50023 16.2942 8.42641 16.2207 8.35258C16.1698 8.30125 16.1188 8.25027 16.0678 8.19895C15.9335 8.06465 15.7992 7.92965 15.6653 7.795C15.5285 7.65754 15.3918 7.52008 15.2546 7.38297C14.9861 7.11332 14.7175 6.84367 14.4492 6.57402C14.5434 6.37258 14.7073 6.22984 14.8623 6.07375C14.9186 6.0168 14.9741 5.95914 15.0296 5.90113C15.319 5.60582 15.6319 5.34707 16.0664 5.35234Z" fill="white"/>
</g>
<defs>
<clipPath id="clip0_1364_10630">
<rect width="18" height="18" fill="white"/>
</clipPath>
</defs>
</svg>
