<svg width="18" height="18" viewBox="0 0 18 18" fill="none" xmlns="http://www.w3.org/2000/svg">
<path d="M9.19345 1.13214C8.93681 1.18839 8.76806 1.42042 8.7997 1.68058C8.82431 1.90206 8.90869 1.99347 9.28486 2.21495C9.85087 2.54894 10.3149 3.06573 10.5681 3.65284C10.677 3.89894 10.6841 3.90948 10.7052 3.81104C10.772 3.5087 10.9126 3.06925 11.0216 2.81261L11.1411 2.52081L11.0251 2.35909C10.8528 2.12706 10.3536 1.65245 10.1075 1.49073C9.60478 1.15323 9.42197 1.08292 9.19345 1.13214Z" fill="white"/>
<path d="M1.16016 1.22694C0.980859 1.32186 0.878906 1.48709 0.878906 1.68748C0.878906 1.84569 0.921094 1.92303 1.48008 2.816C1.81055 3.34686 2.10234 3.80037 2.12695 3.82498C2.16211 3.86366 2.20078 3.85311 2.34141 3.75116C2.43633 3.68436 2.62969 3.56483 2.77031 3.48045C2.92148 3.39256 3.01992 3.3117 3.00938 3.28709C2.97773 3.1992 1.85273 1.42381 1.77891 1.33944C1.6207 1.16366 1.36758 1.11444 1.16016 1.22694Z" fill="white"/>
<path d="M14.6428 1.51855C13.5072 1.59238 12.6248 2.07754 12.1607 2.8791C12.0131 3.13926 11.8197 3.63848 11.76 3.93379L11.7354 4.05332L11.9744 4.03223C12.108 4.02168 12.4033 3.96543 12.6283 3.90566C13.5705 3.66309 14.5479 3.68418 15.4303 3.96895L15.7432 4.06738L15.7818 3.98652C15.9119 3.69473 16.0314 2.94941 16.0279 2.42559C16.0244 1.56426 15.8381 1.44121 14.6428 1.51855Z" fill="white"/>
<path d="M3.80391 1.58125C3.59648 1.70781 3.55078 1.86953 3.55078 2.51641V3.08594L3.85664 2.98398C4.02539 2.92773 4.26094 2.86445 4.38398 2.83984L4.60547 2.80117V2.34063C4.60547 1.94336 4.59492 1.86602 4.53516 1.76406C4.38398 1.52148 4.04648 1.43359 3.80391 1.58125Z" fill="white"/>
<path d="M0.295313 3.79668C0.133594 3.87754 0 4.08145 0 4.2502C0 4.39434 0.119531 4.62637 0.221484 4.68262C0.263672 4.70723 0.457031 4.80215 0.646875 4.89004L0.998438 5.05176L1.13555 4.87246C1.21289 4.77402 1.37813 4.5877 1.50469 4.45762L1.7332 4.22559L1.61367 4.17285C1.54688 4.14473 1.31133 4.03926 1.08984 3.9373C0.608203 3.71582 0.492188 3.69473 0.295313 3.79668Z" fill="white"/>
<path d="M4.80275 3.83171C4.409 3.89499 4.06095 4.01101 3.63908 4.21492C2.10978 4.96374 1.27658 6.15554 1.34689 7.48796C1.37853 8.05398 1.47697 8.31765 1.88478 8.92937C2.25041 9.47781 3.02736 10.413 3.71642 11.1337L3.99064 11.4219L4.72541 10.8805C5.1297 10.5852 5.49181 10.3321 5.534 10.3216C5.78009 10.2548 6.04376 10.3708 6.15275 10.5993C6.23712 10.7716 6.24064 10.8594 6.17384 11.0141C6.11056 11.1618 6.0297 11.2356 5.33712 11.7384C5.01017 11.9774 4.7465 12.1813 4.7465 12.1954C4.7465 12.2833 8.97931 16.3544 9.36603 16.6321C9.71056 16.8852 10.1992 16.952 10.6 16.8009C10.7547 16.7446 10.8672 16.6673 11.0254 16.5091C11.2961 16.2348 11.3945 15.9958 11.3945 15.6055C11.3945 15.363 11.3559 15.2153 11.0254 14.1466C10.8215 13.4891 10.5719 12.6981 10.4699 12.3852L10.2836 11.8122L9.63322 12.1708C8.93712 12.5505 8.77892 12.6032 8.58908 12.5012C8.25158 12.329 8.1672 11.9106 8.42384 11.668C8.47306 11.6223 8.83166 11.4079 9.22189 11.1934C9.80548 10.8735 9.92853 10.7927 9.9215 10.7364C9.89689 10.6098 9.17619 8.60945 8.89142 7.89226L8.61017 7.17156L8.40978 7.30164C7.56603 7.83953 7.07736 8.12781 6.97892 8.14539C6.61681 8.20515 6.28283 7.82195 6.39533 7.47742C6.41994 7.4071 6.47619 7.3157 6.52189 7.26999C6.56759 7.22781 6.95431 6.97117 7.3797 6.70046C7.80861 6.43328 8.15665 6.19773 8.15665 6.18015C8.15665 6.10984 7.72775 5.30124 7.53439 5.00945C7.41837 4.83367 7.22853 4.60515 7.11251 4.49617C6.85236 4.2571 6.36017 3.99695 5.98751 3.89851C5.66759 3.81765 5.09806 3.78601 4.80275 3.83171Z" fill="white"/>
<path d="M9.31641 4.82005C9.00352 4.85872 8.75391 4.92201 8.75391 4.96068C8.75391 4.97826 8.85586 5.19974 8.98242 5.45286C9.78398 7.04896 11.0145 10.4661 12.2344 14.4845C12.2977 14.6884 12.3609 14.8712 12.3785 14.8923C12.4594 14.9908 13.0781 15.2615 13.3418 15.3142C14.1258 15.4654 14.9941 15.149 15.4758 14.5267C15.7289 14.2033 17.2863 11.7634 17.4516 11.4294C17.652 11.0357 17.8066 10.5962 17.9016 10.1497C18.0035 9.67161 18.0105 8.71888 17.9191 8.2513C17.5605 6.46888 16.3793 5.20677 14.7551 4.87279C14.1012 4.73568 13.5176 4.7638 12.7441 4.96771C12.3785 5.06263 12.2625 5.07669 11.8652 5.07669C11.4645 5.07669 11.3555 5.06263 10.9863 4.96771C10.3008 4.78841 9.86484 4.74974 9.31641 4.82005Z" fill="white"/>
</svg>
