<svg width="18" height="18" viewBox="0 0 18 18" fill="none" xmlns="http://www.w3.org/2000/svg">
<path d="M4.28646 1.54234C4.32056 1.54234 4.35466 1.54199 4.39017 1.54199C4.42744 1.54199 4.4647 1.54199 4.50302 1.54199C4.56279 1.54199 4.56279 1.54199 4.62361 1.54164C4.7572 1.54129 4.89115 1.54129 5.02474 1.54129C5.12037 1.54129 5.21634 1.54094 5.31197 1.54094C5.57212 1.54023 5.83263 1.54023 6.09314 1.53988C6.25556 1.53988 6.41834 1.53953 6.58076 1.53953C7.03146 1.53918 7.48181 1.53883 7.93216 1.53848C7.96099 1.53848 7.98982 1.53848 8.0197 1.53848C8.04853 1.53848 8.07736 1.53848 8.10724 1.53848C8.1656 1.53848 8.22431 1.53848 8.28267 1.53848C8.31185 1.53848 8.34103 1.53848 8.37091 1.53848C8.84095 1.53848 9.31134 1.53777 9.78173 1.53707C10.2651 1.53602 10.7482 1.53566 11.2312 1.53566C11.5026 1.53566 11.7737 1.53531 12.0447 1.53461C12.2757 1.53426 12.5067 1.53391 12.7377 1.53426C12.8554 1.53461 12.9732 1.53426 13.091 1.53391C13.2186 1.53355 13.3466 1.53355 13.4745 1.53391C13.5115 1.53391 13.5484 1.53355 13.5863 1.5332C13.9938 1.53602 14.2828 1.63973 14.5788 1.91957C14.8731 2.23105 14.8917 2.58684 14.8889 2.99746C14.8889 3.0516 14.8892 3.10539 14.8896 3.15953C14.8899 3.30719 14.8899 3.45484 14.8892 3.6025C14.8889 3.76176 14.8896 3.92137 14.8899 4.08098C14.8906 4.39316 14.8903 4.70535 14.8899 5.01754C14.8896 5.27137 14.8896 5.52484 14.8899 5.77867C14.8899 5.81488 14.8899 5.85109 14.8899 5.88836C14.8899 5.96184 14.8899 6.03531 14.8899 6.10844C14.8903 6.7968 14.8899 7.48516 14.8892 8.17352C14.8885 8.76379 14.8885 9.35406 14.8892 9.94434C14.8899 10.6302 14.8903 11.3161 14.8899 12.002C14.8899 12.0752 14.8899 12.1483 14.8899 12.2214C14.8899 12.2755 14.8899 12.2755 14.8896 12.3304C14.8896 12.5839 14.8899 12.8373 14.8903 13.0908C14.8906 13.3995 14.8903 13.7085 14.8896 14.0175C14.8892 14.175 14.8892 14.3325 14.8896 14.49C14.8899 14.6345 14.8899 14.7787 14.8892 14.9232C14.8889 14.9752 14.8889 15.0272 14.8892 15.0793C14.892 15.5303 14.8165 15.8348 14.5022 16.1649C14.2729 16.3663 14.0163 16.4574 13.7133 16.4577C13.6792 16.4581 13.6451 16.4581 13.6099 16.4581C13.5726 16.4581 13.5354 16.4581 13.4967 16.4581C13.457 16.4581 13.4172 16.4584 13.3761 16.4584C13.2425 16.4588 13.1089 16.4588 12.975 16.4588C12.8794 16.4591 12.7837 16.4591 12.6877 16.4595C12.4276 16.4598 12.1671 16.4602 11.9069 16.4602C11.7442 16.4602 11.5817 16.4605 11.419 16.4605C10.9686 16.4613 10.5179 16.4616 10.0676 16.4616C10.0387 16.4616 10.0099 16.4616 9.98002 16.4616C9.95119 16.4616 9.92236 16.4616 9.89248 16.4616C9.83412 16.4616 9.77541 16.4616 9.71705 16.4616C9.68787 16.4616 9.65904 16.4616 9.62916 16.4616C9.15877 16.462 8.68837 16.4623 8.21798 16.4634C7.73494 16.4641 7.25154 16.4644 6.76849 16.4644C6.49744 16.4648 6.22603 16.4648 5.95498 16.4655C5.724 16.4658 5.49302 16.4662 5.26205 16.4658C5.14427 16.4658 5.02685 16.4658 4.90908 16.4662C4.78111 16.4669 4.65314 16.4665 4.52517 16.4662C4.48826 16.4665 4.4517 16.4669 4.41337 16.4669C4.00591 16.4644 3.71693 16.3604 3.42091 16.0809C3.12701 15.769 3.10837 15.4132 3.11084 15.0026C3.11084 14.9488 3.11048 14.8947 3.11013 14.8409C3.10978 14.6932 3.11013 14.5456 3.11048 14.3979C3.11084 14.2383 3.11013 14.0787 3.10978 13.9195C3.10908 13.6073 3.10943 13.2951 3.10978 12.9829C3.11013 12.7291 3.11013 12.4752 3.11013 12.2214C3.11013 12.1852 3.10978 12.149 3.10978 12.1117C3.10978 12.0386 3.10978 11.9651 3.10978 11.8916C3.10943 11.2033 3.10978 10.5149 3.11048 9.82656C3.11119 9.23629 3.11119 8.64602 3.11048 8.05574C3.10978 7.36984 3.10943 6.68395 3.10978 5.9984C3.10978 5.92492 3.10978 5.8518 3.11013 5.77867C3.11013 5.74281 3.11013 5.7066 3.11013 5.66969C3.11013 5.41621 3.11013 5.16273 3.10978 4.90961C3.10908 4.60059 3.10943 4.29156 3.11013 3.98289C3.11048 3.82504 3.11048 3.66754 3.11013 3.51004C3.10978 3.3659 3.11013 3.22141 3.11084 3.07727C3.11084 3.02488 3.11084 2.97285 3.11048 2.92082C3.10767 2.47012 3.18326 2.16531 3.49755 1.8352C3.72677 1.6341 3.98341 1.5427 4.28646 1.54234ZM7.18052 4.04477C7.15591 4.06727 7.1313 4.08977 7.10599 4.11262C6.98787 4.22477 6.8722 4.33832 6.75759 4.45398C6.73298 4.47859 6.70837 4.5032 6.68306 4.52852C6.60572 4.60621 6.52837 4.68391 6.45103 4.7616C6.3983 4.81469 6.34521 4.86777 6.29248 4.92086C6.16345 5.04988 6.03478 5.17926 5.90611 5.30863C5.80099 5.25836 5.73244 5.21195 5.65404 5.12512C5.62345 5.09242 5.62345 5.09242 5.59181 5.05902C5.54962 5.01332 5.50779 4.96727 5.4663 4.92086C5.35943 4.80836 5.28103 4.73348 5.12423 4.70957C4.96357 4.71133 4.90064 4.74648 4.78111 4.8516C4.70271 4.94723 4.71115 4.9975 4.71502 5.12371C4.73892 5.29527 4.81908 5.38141 4.94072 5.49848C4.96041 5.51816 4.98009 5.53785 5.00013 5.55824C5.04162 5.59973 5.08345 5.64051 5.12564 5.68129C5.18962 5.74352 5.25255 5.8068 5.31513 5.87008C5.35591 5.91051 5.3967 5.95059 5.43748 5.99066C5.45576 6.0093 5.47439 6.02828 5.49373 6.04762C5.62064 6.16891 5.72681 6.23395 5.90611 6.25785C6.06466 6.19352 6.17224 6.11055 6.29212 5.98996C6.3083 5.97379 6.32447 5.95797 6.34099 5.94145C6.39337 5.88871 6.44576 5.83598 6.49779 5.78324C6.5347 5.74633 6.57127 5.70977 6.60783 5.67285C6.68447 5.59621 6.76076 5.51957 6.83705 5.44223C6.93478 5.34344 7.03287 5.245 7.1313 5.14656C7.20689 5.07098 7.28212 4.99504 7.35771 4.91945C7.39392 4.88289 7.42978 4.84668 7.46599 4.81047C7.51662 4.75949 7.56689 4.70887 7.61716 4.65824C7.64564 4.62906 7.67447 4.60023 7.704 4.5707C7.78978 4.47824 7.80314 4.44273 7.81791 4.31547C7.80033 4.1418 7.75041 4.09434 7.62877 3.9727C7.45298 3.8848 7.31904 3.91785 7.18052 4.04477ZM8.71861 4.81645C8.63564 4.95602 8.60892 5.03055 8.63072 5.19227C8.69365 5.33078 8.72775 5.37227 8.85923 5.44926C8.99283 5.47035 9.12502 5.46895 9.26002 5.46789C9.30045 5.46824 9.34088 5.46859 9.38271 5.46895C9.51666 5.46965 9.65025 5.46965 9.7842 5.4693C9.87736 5.4693 9.97017 5.46965 10.0633 5.47C10.2585 5.47035 10.4532 5.47 10.6483 5.46965C10.8737 5.46895 11.0987 5.46965 11.3237 5.4707C11.541 5.47176 11.7579 5.47176 11.9748 5.47141C12.0669 5.47141 12.159 5.47176 12.2511 5.47211C12.3801 5.47281 12.5088 5.47246 12.6378 5.47141C12.6948 5.47211 12.6948 5.47211 12.7531 5.47281C12.9788 5.4707 12.9788 5.4707 13.1715 5.36453C13.2699 5.25555 13.2896 5.20387 13.2974 5.06254C13.2829 4.9416 13.227 4.87094 13.1483 4.78129C13.0418 4.71484 12.9606 4.70219 12.8358 4.70184C12.8013 4.70148 12.7669 4.70148 12.731 4.70113C12.6934 4.70113 12.6558 4.70113 12.6171 4.70148C12.577 4.70113 12.5373 4.70113 12.4961 4.70078C12.3643 4.70043 12.2325 4.70043 12.1003 4.70043C12.0089 4.70043 11.9171 4.70008 11.8257 4.70008C11.6334 4.69973 11.4415 4.69973 11.2495 4.70008C11.0277 4.70008 10.8055 4.69973 10.5836 4.69902C10.3702 4.69832 10.1565 4.69832 9.94275 4.69832C9.85205 4.69832 9.76134 4.69797 9.67064 4.69762C9.54373 4.69727 9.41681 4.69762 9.2899 4.69797C9.25228 4.69762 9.21466 4.69727 9.17564 4.69727C8.92849 4.69586 8.92849 4.69586 8.71861 4.81645ZM6.99982 8.10953C6.94849 8.16051 6.89752 8.21184 6.84689 8.26352C6.80646 8.3043 6.80646 8.3043 6.76498 8.34578C6.67919 8.43191 6.59377 8.51805 6.50834 8.60453C6.44998 8.66324 6.39162 8.72195 6.33326 8.78066C6.19052 8.92375 6.04849 9.06719 5.90611 9.21098C5.80521 9.16246 5.7349 9.11781 5.65791 9.03625C5.63857 9.01621 5.61923 8.99617 5.5992 8.97543C5.55947 8.93324 5.51939 8.89105 5.47966 8.84887C5.37209 8.73777 5.28701 8.6534 5.13267 8.61332C4.99416 8.61613 4.93404 8.63934 4.82294 8.72336C4.72837 8.84746 4.70798 8.91461 4.7108 9.07035C4.81416 9.30344 4.98607 9.46727 5.16607 9.6448C5.21634 9.69437 5.26591 9.74465 5.31548 9.79492C5.34748 9.82691 5.37947 9.85891 5.41252 9.8916C5.44134 9.92043 5.47052 9.94926 5.50041 9.97879C5.62978 10.0888 5.74439 10.156 5.9149 10.169C6.31849 10.0347 6.6799 9.53371 6.97486 9.23875C7.06451 9.1491 7.15451 9.0598 7.24451 8.97016C7.30181 8.9132 7.35947 8.8559 7.41677 8.79859C7.45685 8.75852 7.45685 8.75852 7.49798 8.71809C7.71244 8.51664 7.71244 8.51664 7.81334 8.25086C7.79787 8.11234 7.78697 8.03641 7.69486 7.92777C7.38443 7.76605 7.22447 7.89191 6.99982 8.10953ZM8.69013 8.78488C8.64021 8.87383 8.61806 8.93254 8.61314 9.0352C8.66869 9.18109 8.72459 9.2718 8.85923 9.3516C8.95978 9.385 9.02236 9.39133 9.12642 9.39168C9.15982 9.39203 9.19287 9.39203 9.22732 9.39238C9.28181 9.39238 9.28181 9.39238 9.33736 9.39238C9.37568 9.39273 9.41435 9.39273 9.45373 9.39309C9.58099 9.39344 9.70826 9.39379 9.83552 9.39379C9.92377 9.39414 10.012 9.39449 10.1002 9.39449C10.262 9.39484 10.4237 9.39519 10.5854 9.39519C10.8231 9.39519 11.0607 9.3959 11.298 9.39695C11.5044 9.39801 11.7104 9.39801 11.9164 9.39801C12.004 9.39836 12.0915 9.39871 12.179 9.39906C12.3014 9.39977 12.4241 9.39941 12.5464 9.39941C12.5826 9.39977 12.6185 9.40012 12.6558 9.40047C12.8586 9.39906 13.0052 9.38148 13.1835 9.28129C13.2706 9.16141 13.2889 9.0932 13.2889 8.9452C13.2467 8.80035 13.1954 8.74129 13.078 8.64848C12.9746 8.61402 12.8797 8.60875 12.7711 8.6084C12.7377 8.6084 12.7046 8.60805 12.6702 8.6077C12.634 8.6077 12.5974 8.6077 12.5601 8.6077C12.5218 8.6077 12.4831 8.60734 12.4438 8.60734C12.3165 8.60664 12.1892 8.60629 12.062 8.60629C11.9737 8.60594 11.8855 8.60594 11.7969 8.60559C11.6355 8.60523 11.4738 8.60523 11.3121 8.60488C11.0744 8.60488 10.8368 8.60418 10.5995 8.60312C10.3931 8.60242 10.1871 8.60207 9.98107 8.60207C9.89353 8.60172 9.80599 8.60172 9.71845 8.60102C9.59611 8.60066 9.47341 8.60066 9.35107 8.60066C9.31486 8.60066 9.27865 8.60031 9.24138 8.59996C9.0213 8.60102 8.85115 8.61824 8.69013 8.78488ZM7.17173 11.8477C7.06451 11.9366 6.96818 12.0351 6.8708 12.1349C6.84302 12.1627 6.81525 12.1908 6.78677 12.2196C6.69888 12.3086 6.61099 12.3979 6.52345 12.4872C6.46369 12.5477 6.40392 12.6081 6.34416 12.6686C6.19755 12.8166 6.05166 12.9646 5.90611 13.1133C5.80908 13.0666 5.73806 13.024 5.66318 12.9463C5.64525 12.928 5.62697 12.9094 5.60834 12.8904C5.59005 12.8711 5.57142 12.8518 5.55244 12.8321C5.36295 12.6232 5.36295 12.6232 5.10419 12.5354C4.98326 12.5392 4.94705 12.5564 4.83595 12.6211C4.74033 12.7333 4.71642 12.7909 4.69744 12.9319C4.73154 13.1242 4.89642 13.2729 5.02931 13.4062C5.04619 13.4227 5.06271 13.4396 5.07994 13.4568C5.11474 13.4916 5.1499 13.5264 5.1847 13.5612C5.23814 13.6143 5.29123 13.6681 5.34431 13.7215C5.37877 13.7556 5.41287 13.7897 5.44697 13.8235C5.47755 13.8544 5.50849 13.885 5.54013 13.9166C5.64877 14.0137 5.72259 14.0569 5.86673 14.0759C6.15009 14.0418 6.3533 13.7662 6.54384 13.5749C6.57794 13.5405 6.6124 13.5064 6.6465 13.4723C6.71787 13.4013 6.78923 13.3295 6.86025 13.2582C6.9513 13.1668 7.04271 13.0754 7.13447 12.9843C7.20478 12.914 7.27544 12.8437 7.34576 12.773C7.39568 12.7231 7.4456 12.6732 7.49587 12.6232C7.52611 12.5927 7.55634 12.5624 7.58763 12.5308C7.61435 12.5041 7.64107 12.4773 7.66849 12.4499C7.75955 12.3462 7.79998 12.2699 7.81791 12.1335C7.80033 11.9894 7.7599 11.9208 7.66392 11.8125C7.47232 11.7222 7.34787 11.7412 7.17173 11.8477ZM8.68345 13.4649C8.63072 13.5556 8.61595 13.6417 8.61314 13.7461C8.65216 13.8674 8.68978 13.9321 8.78576 14.0147C8.9524 14.0879 9.11271 14.0777 9.29236 14.077C9.35283 14.0773 9.35283 14.0773 9.41435 14.0777C9.54724 14.078 9.68013 14.078 9.81302 14.078C9.90513 14.078 9.99759 14.078 10.0901 14.0784C10.2834 14.0787 10.4768 14.0787 10.6705 14.0784C10.8941 14.078 11.1173 14.0784 11.3409 14.0794C11.5564 14.0801 11.7716 14.0801 11.9867 14.0801C12.0785 14.0801 12.1699 14.0801 12.2613 14.0808C12.3893 14.0812 12.5169 14.0808 12.6449 14.0801C12.6828 14.0805 12.7208 14.0808 12.7598 14.0812C12.9669 14.0798 12.9669 14.0798 13.1525 13.995C13.2604 13.8759 13.2907 13.8252 13.2847 13.6604C13.251 13.5239 13.2119 13.4582 13.1131 13.3594C13.0112 13.3257 12.9461 13.3197 12.8403 13.319C12.8059 13.319 12.7714 13.3186 12.7359 13.3183C12.6983 13.3183 12.6603 13.3183 12.6217 13.3179C12.5816 13.3179 12.5419 13.3176 12.5011 13.3172C12.3689 13.3165 12.237 13.3162 12.1052 13.3158C12.0599 13.3158 12.0149 13.3155 11.9685 13.3155C11.7551 13.3148 11.5413 13.3144 11.3276 13.3141C11.0811 13.3137 10.8347 13.3127 10.5886 13.3113C10.3748 13.3102 10.1611 13.3098 9.94767 13.3095C9.85697 13.3095 9.76591 13.3091 9.67521 13.3084C9.5483 13.3074 9.42138 13.3074 9.29412 13.3077C9.23787 13.307 9.23787 13.307 9.18056 13.3063C8.96892 13.3077 8.84412 13.3225 8.68345 13.4649Z" fill="white"/>
</svg>
