<svg width="468" height="83" viewBox="0 0 468 83" fill="none" xmlns="http://www.w3.org/2000/svg">
<path d="M128.477 18.2598V51.0641C128.477 58.2479 126.477 63.7494 122.476 67.5686C118.474 71.4333 112.95 73.3656 105.903 73.3656C101.856 73.3656 98.1508 72.7973 94.7863 71.6606C91.4217 70.5694 88.5573 69.0008 86.193 66.9548L90.4896 58.7708C94.809 62.2717 99.8558 64.0222 105.63 64.0222C109.631 64.0222 112.587 63.0219 114.496 61.0214C116.451 58.9754 117.429 55.8382 117.429 51.6097V48.6771C114.246 52.5873 109.745 54.5424 103.925 54.5424C97.878 54.5424 93.2177 52.8374 89.944 49.4273C86.7159 45.9719 85.1018 41.016 85.1018 34.5597V18.2598H96.1503V33.8777C96.1503 37.606 97.0369 40.4249 98.8101 42.3345C100.583 44.2441 103.084 45.1989 106.312 45.1989C109.722 45.1989 112.427 44.1987 114.428 42.1981C116.428 40.1976 117.429 37.174 117.429 33.1275V18.2598H128.477ZM152.017 66.5456C148.152 66.5456 144.674 65.7499 141.582 64.1586C138.536 62.5218 136.149 60.2712 134.421 57.4068C132.694 54.5424 131.83 51.2915 131.83 47.6541C131.83 44.0168 132.694 40.7659 134.421 37.9015C136.149 35.0371 138.536 32.8092 141.582 31.2179C144.674 29.5811 148.152 28.7627 152.017 28.7627C155.882 28.7627 159.337 29.5811 162.383 31.2179C165.43 32.8092 167.817 35.0371 169.544 37.9015C171.272 40.7659 172.136 44.0168 172.136 47.6541C172.136 51.2915 171.272 54.5424 169.544 57.4068C167.817 60.2712 165.43 62.5218 162.383 64.1586C159.337 65.7499 155.882 66.5456 152.017 66.5456ZM152.017 57.816C154.745 57.816 156.973 56.9066 158.701 55.088C160.474 53.2238 161.36 50.7459 161.36 47.6541C161.36 44.5624 160.474 42.1072 158.701 40.2885C156.973 38.4244 154.745 37.4923 152.017 37.4923C149.289 37.4923 147.038 38.4244 145.265 40.2885C143.492 42.1072 142.605 44.5624 142.605 47.6541C142.605 50.7459 143.492 53.2238 145.265 55.088C147.038 56.9066 149.289 57.816 152.017 57.816ZM222.145 28.7627C226.738 28.7627 230.375 30.1267 233.057 32.8547C235.785 35.5372 237.149 39.5838 237.149 44.9943V66H226.51V46.6311C226.51 43.7213 225.896 41.5616 224.669 40.1521C223.487 38.6972 221.782 37.9697 219.554 37.9697C217.053 37.9697 215.075 38.7881 213.62 40.4249C212.165 42.0162 211.438 44.4033 211.438 47.5859V66H200.799V46.6311C200.799 40.8568 198.48 37.9697 193.842 37.9697C191.387 37.9697 189.432 38.7881 187.977 40.4249C186.522 42.0162 185.795 44.4033 185.795 47.5859V66H175.155V29.3083H185.317V33.5367C186.681 31.9908 188.341 30.8087 190.296 29.9903C192.296 29.1719 194.479 28.7627 196.843 28.7627C199.435 28.7627 201.776 29.2855 203.868 30.3313C205.959 31.3315 207.642 32.8092 208.915 34.7643C210.415 32.8547 212.302 31.377 214.575 30.3313C216.894 29.2855 219.417 28.7627 222.145 28.7627ZM280.231 29.3083V66H270.069V61.7716C267.432 64.9543 263.613 66.5456 258.611 66.5456C255.156 66.5456 252.019 65.7727 249.2 64.2268C246.426 62.6809 244.244 60.4758 242.652 57.6114C241.061 54.747 240.265 51.4279 240.265 47.6541C240.265 43.8804 241.061 40.5613 242.652 37.6969C244.244 34.8325 246.426 32.6273 249.2 31.0815C252.019 29.5356 255.156 28.7627 258.611 28.7627C263.294 28.7627 266.954 30.2403 269.591 33.1957V29.3083H280.231ZM260.453 57.816C263.135 57.816 265.363 56.9066 267.136 55.088C268.909 53.2238 269.796 50.7459 269.796 47.6541C269.796 44.5624 268.909 42.1072 267.136 40.2885C265.363 38.4244 263.135 37.4923 260.453 37.4923C257.725 37.4923 255.474 38.4244 253.701 40.2885C251.928 42.1072 251.041 44.5624 251.041 47.6541C251.041 50.7459 251.928 53.2238 253.701 55.088C255.474 56.9066 257.725 57.816 260.453 57.816ZM296.151 34.1505C297.424 32.3773 299.129 31.036 301.266 30.1267C303.448 29.2173 305.949 28.7627 308.768 28.7627V38.5835C307.586 38.4926 306.79 38.4471 306.381 38.4471C303.334 38.4471 300.947 39.311 299.22 41.0387C297.492 42.721 296.628 45.2671 296.628 48.6771V66H285.989V29.3083H296.151V34.1505ZM333.099 64.2268C332.053 64.9997 330.757 65.5908 329.211 66C327.711 66.3637 326.142 66.5456 324.505 66.5456C320.095 66.5456 316.708 65.4317 314.344 63.2038C311.979 60.9759 310.797 57.7023 310.797 53.383V21.1924H321.436V30.1267H330.507V38.3107H321.436V53.2466C321.436 54.7924 321.823 55.9973 322.596 56.8612C323.369 57.6796 324.483 58.0888 325.938 58.0888C327.574 58.0888 329.029 57.6341 330.302 56.7248L333.099 64.2268Z" fill="#3D3D3D"/>
<path d="M363.126 66.8184C358.17 66.8184 353.692 65.7499 349.691 63.613C345.735 61.4761 342.621 58.5434 340.347 54.8152C338.119 51.0414 337.006 46.813 337.006 42.1299C337.006 37.4468 338.119 33.2411 340.347 29.5129C342.621 25.7391 345.735 22.7838 349.691 20.6468C353.692 18.5099 358.17 17.4414 363.126 17.4414C368.082 17.4414 372.538 18.5099 376.493 20.6468C380.449 22.7838 383.564 25.7391 385.837 29.5129C388.11 33.2411 389.247 37.4468 389.247 42.1299C389.247 46.813 388.11 51.0414 385.837 54.8152C383.564 58.5434 380.449 61.4761 376.493 63.613C372.538 65.7499 368.082 66.8184 363.126 66.8184ZM363.126 57.4068C365.945 57.4068 368.491 56.7702 370.765 55.4972C373.038 54.1786 374.811 52.3599 376.084 50.0411C377.403 47.7223 378.062 45.0853 378.062 42.1299C378.062 39.1746 377.403 36.5375 376.084 34.2187C374.811 31.8999 373.038 30.1039 370.765 28.8309C368.491 27.5123 365.945 26.8531 363.126 26.8531C360.307 26.8531 357.761 27.5123 355.488 28.8309C353.214 30.1039 351.418 31.8999 350.1 34.2187C348.827 36.5375 348.19 39.1746 348.19 42.1299C348.19 45.0853 348.827 47.7223 350.1 50.0411C351.418 52.3599 353.214 54.1786 355.488 55.4972C357.761 56.7702 360.307 57.4068 363.126 57.4068ZM414.396 28.7627C417.806 28.7627 420.898 29.5583 423.671 31.1497C426.49 32.6955 428.695 34.9007 430.286 37.7651C431.878 40.584 432.673 43.8804 432.673 47.6541C432.673 51.4279 431.878 54.747 430.286 57.6114C428.695 60.4303 426.49 62.6355 423.671 64.2268C420.898 65.7727 417.806 66.5456 414.396 66.5456C409.713 66.5456 406.03 65.0679 403.347 62.1126V79.2308H392.708V29.3083H402.87V33.5367C405.507 30.354 409.349 28.7627 414.396 28.7627ZM412.554 57.816C415.282 57.816 417.51 56.9066 419.238 55.088C421.011 53.2238 421.898 50.7459 421.898 47.6541C421.898 44.5624 421.011 42.1072 419.238 40.2885C417.51 38.4244 415.282 37.4923 412.554 37.4923C409.826 37.4923 407.576 38.4244 405.803 40.2885C404.075 42.1072 403.211 44.5624 403.211 47.6541C403.211 50.7459 404.075 53.2238 405.803 55.088C407.576 56.9066 409.826 57.816 412.554 57.816ZM448.048 66.5456C445.001 66.5456 442.023 66.1819 439.114 65.4544C436.204 64.6815 433.885 63.7267 432.157 62.59L435.704 54.9516C437.34 55.9973 439.318 56.8612 441.637 57.5432C443.956 58.1797 446.229 58.498 448.457 58.498C452.958 58.498 455.209 57.384 455.209 55.1562C455.209 54.1104 454.595 53.3602 453.367 52.9056C452.14 52.4509 450.253 52.0644 447.707 51.7461C444.706 51.2915 442.228 50.7686 440.273 50.1775C438.318 49.5865 436.613 48.5407 435.158 47.0403C433.748 45.5399 433.044 43.403 433.044 40.6295C433.044 38.3107 433.703 36.2647 435.022 34.4915C436.386 32.6728 438.341 31.2633 440.887 30.2631C443.478 29.2628 446.525 28.7627 450.026 28.7627C452.617 28.7627 455.186 29.0582 457.732 29.6493C460.324 30.1949 462.461 30.9678 464.143 31.9681L460.597 39.5383C457.368 37.7196 453.845 36.8103 450.026 36.8103C447.752 36.8103 446.047 37.1286 444.911 37.7651C443.774 38.4016 443.206 39.22 443.206 40.2203C443.206 41.357 443.819 42.1526 445.047 42.6073C446.275 43.062 448.23 43.4939 450.912 43.9031C453.913 44.4033 456.368 44.9489 458.278 45.5399C460.187 46.0855 461.847 47.1085 463.256 48.6089C464.666 50.1093 465.371 52.2008 465.371 54.8834C465.371 57.1567 464.689 59.18 463.325 60.9532C461.961 62.7264 459.96 64.1131 457.323 65.1134C454.731 66.0682 451.64 66.5456 448.048 66.5456Z" fill="#3D3D3D"/>
<path fill-rule="evenodd" clip-rule="evenodd" d="M52.9156 51.848C52.295 65.8354 43.9671 76.9806 33.8396 76.9806C23.7121 76.9806 14.7264 64.9294 14.7264 50.1601C15.2601 40.1195 19.3062 31.1214 23.5632 26.3927L23.7742 26.4672L24.5437 26.7651L25.3132 27.0753L26.0951 27.4104L26.877 27.7704L27.6589 28.1551L28.4408 28.5647L29.2227 28.9991C29.8184 29.3466 30.4017 29.7065 30.9975 30.0664L32.1145 30.8111L33.1818 31.5806L33.2191 31.6054C27.3734 36.5823 25.611 42.7755 25.611 50.1353C25.611 59.8036 29.3096 67.6847 33.852 67.6847C37.4016 67.6847 40.4424 62.8567 41.5966 56.1175L42.1303 55.9934L43.0239 55.77L43.9175 55.5217L44.8111 55.2611L45.7047 54.9756L46.6107 54.6654L47.5167 54.3427L48.4103 53.9952L49.3039 53.6228L50.1975 53.2257L51.0911 52.8161L51.9848 52.3693L52.9156 51.8108V51.848ZM34.1499 18.4372L35.0932 18.9584L35.9247 19.5045L36.7314 20.063L37.5257 20.6339L38.2952 21.2173L39.0523 21.813L39.7846 22.4212L40.5044 23.0417L41.1994 23.6747L41.8821 24.3076L42.5399 24.953L43.1852 25.5984L43.5576 25.9956C50.0238 23.6126 55.7702 23.8112 57.545 26.8519C59.8162 30.749 54.7773 37.8606 46.3253 42.6886C39.8839 46.3747 33.579 47.9509 26.3185 45.4315V45.4811L26.1695 46.7843L26.0827 48.1123C26.0578 48.7949 26.033 49.4775 26.033 50.1601V51.0537L26.0702 51.9349L26.1199 52.8037L26.1944 53.6601L26.2812 54.4916L26.3929 55.3107L26.517 56.1175L26.5543 56.3285C32.8219 57.6068 42.7136 56.5767 51.7613 52.0218C64.6814 44.6371 70.9242 31.2455 65.6619 22.2226C60.5981 13.5348 46.6852 11.9709 34.1375 18.4372H34.1499ZM14.3045 51.2399L14.2796 50.1725L14.3417 49.1796L14.4286 48.2116L14.5403 47.2435L14.6644 46.2878L14.8133 45.3446L14.9747 44.4137L15.1608 43.4829L15.3594 42.5645L15.5704 41.6585L15.8062 40.7649L16.0544 39.8837L16.2158 39.3748C10.9038 35.0185 8.19816 29.992 9.97296 26.9512C12.2442 23.0541 20.9817 23.8236 29.4337 28.6516C35.8751 32.3377 40.4051 36.9422 41.8324 44.4386H41.8697L43.0735 43.8925L44.2774 43.3091C44.8856 42.9865 45.4937 42.6638 46.0894 42.3287L46.8589 41.8694L47.616 41.3978L48.3483 40.9262L49.0557 40.4422L49.7383 39.9457L50.3961 39.4369L51.0291 38.928L51.1904 38.7915C49.1798 32.7845 43.3342 24.8041 34.8201 19.3308C21.9497 11.9461 7.1308 13.2865 1.86847 22.3094C-3.19529 30.9973 2.38974 43.7063 14.3169 51.2399H14.3045Z" fill="#E51D25"/>
</svg>
