<svg width="198" height="34" viewBox="0 0 198 34" fill="none" xmlns="http://www.w3.org/2000/svg">
<path d="M56.2709 7.20529V20.8071C56.2709 23.7857 55.4414 26.0668 53.7825 27.6504C52.1235 29.2528 49.8329 30.054 46.9109 30.054C45.233 30.054 43.6966 29.8184 42.3015 29.3471C40.9065 28.8946 39.7188 28.2442 38.7385 27.3959L40.52 24.0025C42.311 25.4541 44.4035 26.1799 46.7978 26.1799C48.4567 26.1799 49.6821 25.7652 50.4739 24.9357C51.2846 24.0874 51.6899 22.7866 51.6899 21.0333V19.8173C50.3702 21.4386 48.5039 22.2493 46.0908 22.2493C43.5835 22.2493 41.6511 21.5423 40.2938 20.1284C38.9553 18.6956 38.286 16.6408 38.286 13.9638V7.20529H42.8671V13.681C42.8671 15.2269 43.2347 16.3957 43.9699 17.1875C44.7052 17.9793 45.742 18.3752 47.0805 18.3752C48.4944 18.3752 49.6161 17.9604 50.4456 17.1309C51.2751 16.3014 51.6899 15.0478 51.6899 13.3699V7.20529H56.2709ZM66.0313 27.2262C64.4289 27.2262 62.9867 26.8963 61.7048 26.2365C60.4417 25.5578 59.4519 24.6246 58.7355 23.437C58.0192 22.2493 57.661 20.9013 57.661 19.3932C57.661 17.885 58.0192 16.5371 58.7355 15.3494C59.4519 14.1617 60.4417 13.238 61.7048 12.5781C62.9867 11.8995 64.4289 11.5601 66.0313 11.5601C67.6337 11.5601 69.0665 11.8995 70.3296 12.5781C71.5927 13.238 72.5824 14.1617 73.2988 15.3494C74.0152 16.5371 74.3734 17.885 74.3734 19.3932C74.3734 20.9013 74.0152 22.2493 73.2988 23.437C72.5824 24.6246 71.5927 25.5578 70.3296 26.2365C69.0665 26.8963 67.6337 27.2262 66.0313 27.2262ZM66.0313 23.6066C67.1624 23.6066 68.0862 23.2296 68.8026 22.4755C69.5378 21.7026 69.9054 20.6751 69.9054 19.3932C69.9054 18.1112 69.5378 17.0932 68.8026 16.3391C68.0862 15.5662 67.1624 15.1797 66.0313 15.1797C64.9002 15.1797 63.967 15.5662 63.2318 16.3391C62.4965 17.0932 62.1289 18.1112 62.1289 19.3932C62.1289 20.6751 62.4965 21.7026 63.2318 22.4755C63.967 23.2296 64.9002 23.6066 66.0313 23.6066ZM95.109 11.5601C97.0131 11.5601 98.5212 12.1257 99.6335 13.2568C100.765 14.3691 101.33 16.0469 101.33 18.2903V27H96.9188V18.969C96.9188 17.7625 96.6643 16.867 96.1553 16.2826C95.6651 15.6793 94.9582 15.3777 94.0344 15.3777C92.9976 15.3777 92.1775 15.717 91.5742 16.3957C90.971 17.0555 90.6693 18.0453 90.6693 19.3649V27H86.2579V18.969C86.2579 16.5748 85.2965 15.3777 83.3736 15.3777C82.3555 15.3777 81.5449 15.717 80.9416 16.3957C80.3384 17.0555 80.0367 18.0453 80.0367 19.3649V27H75.6253V11.7864H79.8388V13.5396C80.4043 12.8986 81.0925 12.4085 81.9031 12.0691C82.7326 11.7298 83.6375 11.5601 84.6178 11.5601C85.6924 11.5601 86.6632 11.7769 87.5304 12.2105C88.3976 12.6253 89.0952 13.238 89.623 14.0486C90.2451 13.2568 91.0275 12.6441 91.9701 12.2105C92.9316 11.7769 93.9779 11.5601 95.109 11.5601ZM119.193 11.7864V27H114.98V25.2468C113.886 26.5664 112.303 27.2262 110.229 27.2262C108.796 27.2262 107.495 26.9057 106.327 26.2648C105.177 25.6238 104.272 24.7095 103.612 23.5218C102.952 22.3341 102.622 20.9579 102.622 19.3932C102.622 17.8285 102.952 16.4522 103.612 15.2646C104.272 14.0769 105.177 13.1626 106.327 12.5216C107.495 11.8806 108.796 11.5601 110.229 11.5601C112.171 11.5601 113.688 12.1728 114.782 13.3982V11.7864H119.193ZM110.992 23.6066C112.105 23.6066 113.029 23.2296 113.764 22.4755C114.499 21.7026 114.867 20.6751 114.867 19.3932C114.867 18.1112 114.499 17.0932 113.764 16.3391C113.029 15.5662 112.105 15.1797 110.992 15.1797C109.861 15.1797 108.928 15.5662 108.193 16.3391C107.458 17.0932 107.09 18.1112 107.09 19.3932C107.09 20.6751 107.458 21.7026 108.193 22.4755C108.928 23.2296 109.861 23.6066 110.992 23.6066ZM125.794 13.7941C126.322 13.0589 127.029 12.5027 127.915 12.1257C128.82 11.7486 129.857 11.5601 131.026 11.5601V15.6322C130.535 15.5945 130.205 15.5756 130.036 15.5756C128.773 15.5756 127.783 15.9338 127.067 16.6502C126.35 17.3477 125.992 18.4034 125.992 19.8173V27H121.581V11.7864H125.794V13.7941ZM141.114 26.2648C140.68 26.5853 140.143 26.8303 139.502 27C138.88 27.1508 138.23 27.2262 137.551 27.2262C135.722 27.2262 134.318 26.7643 133.338 25.8406C132.357 24.9168 131.867 23.5595 131.867 21.7685V8.42125H136.278V12.1257H140.039V15.5191H136.278V21.712C136.278 22.353 136.439 22.8525 136.759 23.2107C137.08 23.5501 137.542 23.7197 138.145 23.7197C138.823 23.7197 139.427 23.5312 139.955 23.1542L141.114 26.2648Z" fill="white"/>
<path d="M153.563 27.3393C151.508 27.3393 149.651 26.8963 147.992 26.0103C146.352 25.1242 145.061 23.9083 144.118 22.3624C143.195 20.7977 142.733 19.0444 142.733 17.1026C142.733 15.1609 143.195 13.4171 144.118 11.8712C145.061 10.3065 146.352 9.08108 147.992 8.19503C149.651 7.30898 151.508 6.86596 153.563 6.86596C155.618 6.86596 157.466 7.30898 159.106 8.19503C160.746 9.08108 162.037 10.3065 162.98 11.8712C163.922 13.4171 164.394 15.1609 164.394 17.1026C164.394 19.0444 163.922 20.7977 162.98 22.3624C162.037 23.9083 160.746 25.1242 159.106 26.0103C157.466 26.8963 155.618 27.3393 153.563 27.3393ZM153.563 23.437C154.732 23.437 155.788 23.173 156.73 22.6452C157.673 22.0985 158.408 21.3444 158.936 20.3829C159.483 19.4215 159.756 18.328 159.756 17.1026C159.756 15.8773 159.483 14.7838 158.936 13.8224C158.408 12.8609 157.673 12.1163 156.73 11.5884C155.788 11.0417 154.732 10.7683 153.563 10.7683C152.394 10.7683 151.339 11.0417 150.396 11.5884C149.454 12.1163 148.709 12.8609 148.162 13.8224C147.634 14.7838 147.37 15.8773 147.37 17.1026C147.37 18.328 147.634 19.4215 148.162 20.3829C148.709 21.3444 149.454 22.0985 150.396 22.6452C151.339 23.173 152.394 23.437 153.563 23.437ZM174.821 11.5601C176.235 11.5601 177.517 11.89 178.667 12.5499C179.836 13.1908 180.75 14.1052 181.41 15.2928C182.07 16.4617 182.4 17.8285 182.4 19.3932C182.4 20.9579 182.07 22.3341 181.41 23.5218C180.75 24.6906 179.836 25.6049 178.667 26.2648C177.517 26.9057 176.235 27.2262 174.821 27.2262C172.88 27.2262 171.353 26.6135 170.24 25.3881V32.486H165.829V11.7864H170.042V13.5396C171.136 12.22 172.729 11.5601 174.821 11.5601ZM174.058 23.6066C175.189 23.6066 176.113 23.2296 176.829 22.4755C177.564 21.7026 177.932 20.6751 177.932 19.3932C177.932 18.1112 177.564 17.0932 176.829 16.3391C176.113 15.5662 175.189 15.1797 174.058 15.1797C172.927 15.1797 171.994 15.5662 171.258 16.3391C170.542 17.0932 170.184 18.1112 170.184 19.3932C170.184 20.6751 170.542 21.7026 171.258 22.4755C171.994 23.2296 172.927 23.6066 174.058 23.6066ZM188.775 27.2262C187.512 27.2262 186.277 27.0754 185.07 26.7738C183.864 26.4533 182.902 26.0574 182.186 25.5861L183.656 22.4189C184.335 22.8525 185.155 23.2107 186.117 23.4935C187.078 23.7574 188.021 23.8894 188.944 23.8894C190.811 23.8894 191.744 23.4275 191.744 22.5038C191.744 22.0702 191.489 21.7591 190.98 21.5706C190.471 21.3821 189.689 21.2218 188.633 21.0899C187.389 20.9013 186.362 20.6845 185.551 20.4395C184.74 20.1944 184.033 19.7608 183.43 19.1387C182.846 18.5166 182.553 17.6305 182.553 16.4805C182.553 15.5191 182.827 14.6707 183.374 13.9355C183.939 13.1814 184.75 12.597 185.805 12.1822C186.88 11.7675 188.143 11.5601 189.595 11.5601C190.669 11.5601 191.734 11.6827 192.79 11.9277C193.865 12.154 194.751 12.4745 195.448 12.8892L193.978 16.0281C192.639 15.274 191.178 14.8969 189.595 14.8969C188.652 14.8969 187.945 15.0289 187.474 15.2928C187.003 15.5568 186.767 15.8961 186.767 16.3109C186.767 16.7822 187.021 17.1121 187.53 17.3006C188.039 17.4891 188.85 17.6682 189.962 17.8379C191.207 18.0453 192.225 18.2715 193.016 18.5166C193.808 18.7428 194.496 19.167 195.081 19.7891C195.665 20.4112 195.957 21.2784 195.957 22.3907C195.957 23.3333 195.675 24.1722 195.109 24.9074C194.543 25.6426 193.714 26.2176 192.62 26.6324C191.546 27.0283 190.264 27.2262 188.775 27.2262Z" fill="white"/>
<path fill-rule="evenodd" clip-rule="evenodd" d="M21.1101 21.4979C20.8659 27.2976 17.5894 31.9188 13.6048 31.9188C9.62028 31.9188 6.08497 26.9219 6.08497 20.798C6.29494 16.6349 7.88681 12.9039 9.56169 10.9433L9.6447 10.9742L9.94745 11.0977L10.2502 11.2263L10.5578 11.3653L10.8655 11.5145L11.1731 11.674L11.4807 11.8438L11.7883 12.024C12.0227 12.168 12.2522 12.3173 12.4866 12.4665L12.9261 12.7753L13.346 13.0943L13.3607 13.1046C11.0608 15.1682 10.3674 17.7361 10.3674 20.7878C10.3674 24.7966 11.8225 28.0643 13.6097 28.0643C15.0063 28.0643 16.2026 26.0625 16.6567 23.2682L16.8667 23.2167L17.2183 23.1241L17.5699 23.0212L17.9214 22.9131L18.273 22.7947L18.6295 22.6661L18.9859 22.5323L19.3375 22.3882L19.6891 22.2338L20.0407 22.0691L20.3923 21.8993L20.7438 21.7141L21.1101 21.4825V21.4979ZM13.7269 7.64463L14.098 7.86077L14.4252 8.08719L14.7426 8.31877L15.0551 8.55549L15.3578 8.79736L15.6557 9.04437L15.9438 9.29653L16.227 9.55383L16.5005 9.81628L16.769 10.0787L17.0278 10.3463L17.2818 10.6139L17.4283 10.7786C19.9723 9.79055 22.2332 9.87289 22.9314 11.1337C23.825 12.7496 21.8425 15.6983 18.5172 17.7001C15.9829 19.2285 13.5023 19.882 10.6457 18.8374V18.858L10.5871 19.3983L10.5529 19.9489C10.5432 20.232 10.5334 20.515 10.5334 20.798V21.1686L10.5481 21.5339L10.5676 21.8942L10.5969 22.2492L10.6311 22.594L10.675 22.9337L10.7238 23.2682L10.7385 23.3557C13.2044 23.8857 17.0962 23.4586 20.6559 21.57C25.7392 18.508 28.1953 12.9554 26.1249 9.21419C24.1327 5.61192 18.6588 4.96352 13.722 7.64463H13.7269ZM5.91894 21.2458L5.90918 20.8032L5.93359 20.3915L5.96777 19.9901L6.01172 19.5887L6.06055 19.1925L6.11915 18.8014L6.18263 18.4154L6.25587 18.0294L6.334 17.6486L6.41701 17.273L6.50979 16.9025L6.60745 16.5371L6.67093 16.3261C4.58099 14.5198 3.51649 12.4356 4.21476 11.1749C5.10836 9.55898 8.54601 9.87804 11.8714 11.8799C14.4057 13.4083 16.188 15.3175 16.7495 18.4257H16.7642L17.2378 18.1993L17.7115 17.9574C17.9507 17.8236 18.19 17.6898 18.4244 17.5509L18.7271 17.3605L19.025 17.1649L19.3131 16.9694L19.5914 16.7687L19.86 16.5628L20.1188 16.3518L20.3678 16.1408L20.4313 16.0842C19.6403 13.5935 17.3404 10.2846 13.9906 8.01515C8.92689 4.95322 3.09655 5.509 1.02614 9.25021C-0.966134 12.8525 1.23123 18.1221 5.92383 21.2458H5.91894Z" fill="#E51D25"/>
</svg>
