<svg width="18" height="18" viewBox="0 0 18 18" fill="none" xmlns="http://www.w3.org/2000/svg">
<path d="M3.375 10.1247C5.83594 10.1247 5.83594 10.1247 6.04688 10.2653C6.1077 10.3374 6.16359 10.4088 6.21914 10.4843C6.52887 10.8753 6.8407 11.2318 7.35926 11.2933C7.73156 11.3253 8.10633 11.3077 8.47898 11.2877C8.69133 11.2775 8.90367 11.2736 9.11602 11.269C9.28125 11.2655 9.44578 11.2606 9.61066 11.2529C9.65602 11.2511 9.65602 11.2511 9.70207 11.249C9.75762 11.2469 9.81352 11.2441 9.86906 11.2406C10.1 11.2325 10.2765 11.3073 10.4498 11.4592C10.4688 11.4824 10.4878 11.5053 10.5075 11.5288C10.5268 11.5517 10.5462 11.5742 10.5662 11.5977C10.7237 11.8263 10.7111 12.0713 10.6875 12.3395C10.6284 12.5737 10.4604 12.7329 10.2656 12.8669C10.1218 12.9372 10.003 12.9463 9.8434 12.9474C9.81949 12.9474 9.79523 12.9477 9.77062 12.9481C9.71859 12.9484 9.66656 12.9488 9.61453 12.9491C9.53191 12.9491 9.4493 12.9498 9.36703 12.9509C9.16207 12.9527 8.95746 12.9541 8.7525 12.9555C8.57953 12.9565 8.40621 12.9579 8.23289 12.9597C8.15203 12.9604 8.07082 12.9604 7.98961 12.9607C7.93969 12.9614 7.89012 12.9618 7.8402 12.9622C7.7748 12.9625 7.7748 12.9625 7.70836 12.9629C7.5948 12.9723 7.51816 12.9892 7.41797 13.0427C7.33605 13.1422 7.33605 13.1422 7.35645 13.2557C7.37437 13.3626 7.37437 13.3626 7.45312 13.4294C7.5709 13.4709 7.68551 13.4691 7.80961 13.4698C7.8532 13.4698 7.8968 13.4702 7.9418 13.4702C7.98961 13.4705 8.03707 13.4705 8.08488 13.4705C8.1341 13.4705 8.18332 13.4705 8.23254 13.4709C8.3359 13.4709 8.43926 13.4712 8.54262 13.4712C8.67375 13.4712 8.80488 13.4716 8.93637 13.4723C9.03797 13.4726 9.13992 13.4726 9.24188 13.4726C9.29004 13.4726 9.33855 13.4726 9.38672 13.473C9.93867 13.4758 10.4196 13.4301 10.8369 13.0377C10.9642 12.9024 11.0588 12.772 11.0943 12.5867C11.1312 12.3979 11.1681 12.2727 11.3193 12.1476C11.4532 12.0653 11.5952 11.9992 11.738 11.9331C11.7893 11.9078 11.8406 11.8822 11.892 11.8565C11.9943 11.8055 12.0966 11.7552 12.1992 11.7053C12.3813 11.6167 12.5585 11.5197 12.7354 11.4213C12.7965 11.3875 12.8577 11.3541 12.9189 11.3207C12.9498 11.3035 12.9807 11.2866 13.0127 11.269C13.2483 11.1411 13.4849 11.0152 13.7211 10.889C13.9331 10.7754 14.1448 10.6615 14.3561 10.5466C14.3979 10.5241 14.4397 10.5012 14.4819 10.4784C14.5607 10.4355 14.6394 10.3926 14.7182 10.3493C14.7716 10.3205 14.7716 10.3205 14.8257 10.291C14.8567 10.2741 14.8876 10.2572 14.9196 10.2397C15.1267 10.1391 15.3039 10.111 15.5303 10.1113C15.5584 10.1117 15.5862 10.1117 15.6154 10.1117C15.8361 10.1163 16.0137 10.1542 16.207 10.2653C16.2626 10.297 16.2626 10.297 16.3192 10.3289C16.5906 10.5402 16.8135 10.7934 16.875 11.1442C16.9035 11.5882 16.8912 11.9563 16.5916 12.3111C16.2485 12.6869 15.7528 12.9481 15.3302 13.2251C15.262 13.2698 15.1938 13.3148 15.1256 13.3594C14.9836 13.4529 14.8416 13.5464 14.6995 13.6396C14.355 13.8657 14.0112 14.0924 13.667 14.3192C13.6178 14.3519 13.6178 14.3519 13.5675 14.3849C13.025 14.7425 12.4836 15.1018 11.9436 15.4635C11.803 15.5577 11.6624 15.6516 11.5214 15.7458C11.4659 15.7827 11.4107 15.82 11.3551 15.8573C10.2329 16.6096 9.15363 17.0951 7.76285 16.822C7.50621 16.7625 7.25414 16.6866 7.00242 16.6086C6.96305 16.5966 6.92332 16.5843 6.88254 16.5716C6.63152 16.4939 6.38156 16.4131 6.13195 16.3298C5.96285 16.2735 5.7934 16.2183 5.62359 16.1631C5.53816 16.135 5.45309 16.1065 5.36801 16.0777C5.30508 16.0563 5.30508 16.0563 5.24074 16.0345C5.20418 16.0218 5.16727 16.0091 5.12965 15.9961C4.4768 15.7972 4.11926 15.8088 3.375 15.7848C3.375 13.917 3.375 12.0491 3.375 10.1247Z" fill="white"/>
<path d="M13.5 3.33984C13.5032 3.95508 13.5056 4.57031 13.5074 5.1852C13.5081 5.47102 13.5091 5.75648 13.5105 6.0423C13.512 6.29121 13.513 6.54012 13.5134 6.78938C13.5134 6.92121 13.5137 7.0527 13.5148 7.18453C13.5162 7.33184 13.5162 7.47914 13.5158 7.62645C13.5165 7.67004 13.5169 7.71363 13.5176 7.75863C13.5165 7.98293 13.5137 8.12777 13.3594 8.29688C13.1604 8.46949 12.8879 8.56371 12.6496 8.66812C12.606 8.68746 12.562 8.70715 12.5184 8.72648C12.4204 8.77008 12.3223 8.81332 12.2242 8.85656C11.9408 8.98172 11.6578 9.10758 11.3745 9.23344C11.2721 9.27914 11.1698 9.32449 11.0672 9.36984C10.7564 9.50766 10.446 9.64617 10.1366 9.78715C10.1106 9.7991 10.0849 9.8107 10.0586 9.82301C9.93973 9.8768 9.82125 9.93129 9.70312 9.98578C9.66234 10.0044 9.62156 10.023 9.57973 10.042C9.54492 10.0582 9.50977 10.0744 9.47355 10.0909C9.38672 10.125 9.38672 10.125 9.28125 10.125C9.28125 8.50078 9.28125 6.87656 9.28125 5.20312C10.8833 4.49121 10.8833 4.49121 11.5133 4.21137C11.5421 4.19836 11.571 4.1857 11.6009 4.17234C11.6624 4.14492 11.7243 4.1175 11.7861 4.09008C12.1141 3.94453 12.4425 3.79828 12.7698 3.65133C12.7944 3.64008 12.819 3.62918 12.8443 3.61758C12.9561 3.5673 13.0679 3.51703 13.1797 3.46641C13.2173 3.44953 13.2553 3.43266 13.294 3.41508C13.3429 3.39293 13.3429 3.39293 13.3924 3.37078C13.4648 3.33984 13.4648 3.33984 13.5 3.33984Z" fill="white"/>
<path d="M4.5 3.33984C4.62691 3.39504 4.75418 3.45023 4.88109 3.50543C4.9166 3.5209 4.95211 3.53637 4.98867 3.55219C5.34375 3.70652 5.69777 3.86332 6.05109 4.02117C6.11859 4.05105 6.18609 4.08094 6.25359 4.11117C6.39387 4.1734 6.53414 4.23598 6.67441 4.2982C7.00312 4.44445 7.33184 4.5907 7.66055 4.73695C7.7632 4.78266 7.86586 4.82836 7.96887 4.87406C8.0318 4.90219 8.09508 4.93031 8.15801 4.95844C8.18648 4.97074 8.21496 4.9834 8.24414 4.99641C8.27051 5.00836 8.29723 5.01996 8.32465 5.03227C8.3475 5.04246 8.37 5.05266 8.39355 5.06285C8.50184 5.11031 8.61012 5.15672 8.71875 5.20312C8.71875 6.82734 8.71875 8.45156 8.71875 10.125C8.59535 10.1004 8.51625 10.0832 8.40762 10.0336C8.38195 10.022 8.35664 10.0104 8.33027 9.99844C8.28914 9.97945 8.28914 9.97945 8.2473 9.96012C8.21812 9.94676 8.1893 9.9334 8.15906 9.92004C8.09648 9.89121 8.03355 9.86273 7.97098 9.83391C7.80398 9.75727 7.63629 9.68098 7.46895 9.60504C7.4352 9.58957 7.40109 9.5741 7.36629 9.55793C7.07238 9.42434 6.77813 9.29285 6.48316 9.16207C6.40547 9.12762 6.32777 9.09316 6.25008 9.05836C6.02578 8.95887 5.80113 8.85938 5.57613 8.76129C5.48156 8.7198 5.38664 8.67797 5.29207 8.63613C5.22738 8.60766 5.1627 8.57953 5.09766 8.55176C4.59633 8.32992 4.59633 8.32992 4.5 8.08594C4.49121 7.99453 4.49121 7.99453 4.49156 7.88871C4.49156 7.84863 4.49121 7.80855 4.49121 7.76742C4.49156 7.72348 4.49191 7.67953 4.49191 7.63418C4.49191 7.58813 4.49191 7.54172 4.49191 7.49391C4.49191 7.36699 4.49227 7.24008 4.49297 7.11316C4.49332 6.98063 4.49332 6.84809 4.49332 6.71555C4.49367 6.46418 4.49437 6.21316 4.49508 5.96215C4.49578 5.67598 4.49613 5.39016 4.49648 5.10434C4.49719 4.51617 4.49859 3.92801 4.5 3.33984Z" fill="white"/>
<path d="M9.52137 1.24097C9.54984 1.25363 9.57832 1.26593 9.6075 1.27894C9.70137 1.32042 9.79453 1.36331 9.8877 1.40585C9.95449 1.43538 10.0213 1.46527 10.0877 1.4948C10.195 1.54226 10.3022 1.58972 10.4091 1.63753C10.8299 1.82562 11.2539 2.00632 11.6779 2.18738C11.886 2.27597 12.0941 2.36527 12.3022 2.45456C12.3771 2.48656 12.4516 2.51855 12.5265 2.55054C12.7571 2.64933 12.9881 2.74812 13.2188 2.84726C13.2188 2.87046 13.2188 2.89367 13.2188 2.91757C12.4509 3.26492 11.6821 3.61085 10.909 3.94659C10.6021 4.08019 10.2973 4.21695 9.99457 4.35933C9.90316 4.40187 9.81211 4.44441 9.7207 4.48695C9.6627 4.51402 9.60504 4.54144 9.54738 4.56956C9.46793 4.60824 9.38777 4.6455 9.30762 4.68242C9.28477 4.69402 9.26156 4.70562 9.23801 4.71757C9.10406 4.77804 9.01547 4.78613 8.87906 4.74253C8.82527 4.72109 8.77184 4.69859 8.71875 4.67538C8.68184 4.65992 8.68184 4.65992 8.64422 4.64374C8.56723 4.6107 8.49164 4.57624 8.4157 4.54109C8.37281 4.52175 8.37281 4.52175 8.32957 4.50171C8.2684 4.47394 8.20723 4.44617 8.14641 4.41804C7.98152 4.34245 7.81664 4.26757 7.65176 4.19269C7.61766 4.17722 7.58391 4.16175 7.54875 4.14593C7.19824 3.98667 6.84563 3.83199 6.49301 3.67765C6.37453 3.62597 6.25605 3.57429 6.13758 3.52226C6.09504 3.50363 6.09504 3.50363 6.05145 3.48464C5.62676 3.29867 5.20383 3.10812 4.78125 2.91757C4.78125 2.89437 4.78125 2.87117 4.78125 2.84726C4.98129 2.76148 4.98129 2.76148 5.04773 2.733C5.17676 2.67781 5.30578 2.62226 5.43516 2.56706C5.7484 2.43277 6.06199 2.29847 6.37559 2.16417C6.52641 2.09949 6.67723 2.0348 6.8284 1.97011C6.93492 1.92441 7.04145 1.8787 7.14832 1.83335C7.22988 1.7982 7.3118 1.76304 7.39371 1.72788C7.47352 1.69378 7.55332 1.65968 7.63313 1.62593C7.82543 1.54402 8.01598 1.46034 8.20547 1.3721C8.24133 1.35593 8.27719 1.33941 8.31445 1.32253C8.3809 1.29195 8.44734 1.26066 8.51344 1.22867C8.86008 1.07081 9.1793 1.08031 9.52137 1.24097Z" fill="white"/>
<path d="M1.125 9.5625C2.46094 9.5625 2.46094 9.5625 2.67188 9.70312C2.8023 9.85887 2.83008 9.96645 2.83043 10.1675C2.83043 10.1921 2.83078 10.2171 2.83113 10.2424C2.83148 10.325 2.83113 10.4073 2.83078 10.4899C2.83078 10.549 2.83113 10.6084 2.83148 10.6675C2.83219 10.8281 2.83184 10.9888 2.83148 11.1495C2.83113 11.3179 2.83148 11.4859 2.83148 11.6543C2.83184 11.937 2.83148 12.2193 2.83078 12.5019C2.83008 12.8285 2.83043 13.1548 2.83113 13.4814C2.83184 13.7619 2.83184 14.0425 2.83148 14.323C2.83113 14.4904 2.83113 14.6577 2.83184 14.8254C2.83219 14.9825 2.83184 15.14 2.83113 15.2975C2.83078 15.3552 2.83078 15.4129 2.83113 15.4709C2.83148 15.5496 2.83113 15.6284 2.83043 15.7075C2.83043 15.7514 2.83008 15.7957 2.83008 15.8411C2.80863 15.9873 2.76645 16.059 2.67188 16.1719C2.46094 16.3125 2.46094 16.3125 1.125 16.3125C1.125 14.085 1.125 11.8575 1.125 9.5625Z" fill="white"/>
</svg>
