<svg width="18" height="18" viewBox="0 0 18 18" fill="none" xmlns="http://www.w3.org/2000/svg">
<path d="M0 4.5C0 3.90326 0.237053 3.33097 0.65901 2.90901C1.08097 2.48705 1.65326 2.25 2.25 2.25H15.75C16.3467 2.25 16.919 2.48705 17.341 2.90901C17.7629 3.33097 18 3.90326 18 4.5V13.5C18 14.0967 17.7629 14.669 17.341 15.091C16.919 15.5129 16.3467 15.75 15.75 15.75H2.25C1.65326 15.75 1.08097 15.5129 0.65901 15.091C0.237053 14.669 0 14.0967 0 13.5V4.5ZM10.125 6.1875C10.125 6.33668 10.1843 6.47976 10.2898 6.58525C10.3952 6.69074 10.5383 6.75 10.6875 6.75H15.1875C15.3367 6.75 15.4798 6.69074 15.5852 6.58525C15.6907 6.47976 15.75 6.33668 15.75 6.1875C15.75 6.03832 15.6907 5.89524 15.5852 5.78975C15.4798 5.68426 15.3367 5.625 15.1875 5.625H10.6875C10.5383 5.625 10.3952 5.68426 10.2898 5.78975C10.1843 5.89524 10.125 6.03832 10.125 6.1875ZM10.125 9C10.125 9.14918 10.1843 9.29226 10.2898 9.39775C10.3952 9.50324 10.5383 9.5625 10.6875 9.5625H15.1875C15.3367 9.5625 15.4798 9.50324 15.5852 9.39775C15.6907 9.29226 15.75 9.14918 15.75 9C15.75 8.85082 15.6907 8.70774 15.5852 8.60225C15.4798 8.49676 15.3367 8.4375 15.1875 8.4375H10.6875C10.5383 8.4375 10.3952 8.49676 10.2898 8.60225C10.1843 8.70774 10.125 8.85082 10.125 9ZM11.25 11.8125C11.25 11.9617 11.3093 12.1048 11.4148 12.2102C11.5202 12.3157 11.6633 12.375 11.8125 12.375H15.1875C15.3367 12.375 15.4798 12.3157 15.5852 12.2102C15.6907 12.1048 15.75 11.9617 15.75 11.8125C15.75 11.6633 15.6907 11.5202 15.5852 11.4148C15.4798 11.3093 15.3367 11.25 15.1875 11.25H11.8125C11.6633 11.25 11.5202 11.3093 11.4148 11.4148C11.3093 11.5202 11.25 11.6633 11.25 11.8125ZM10.125 14.0625C10.125 11.8879 8.11125 10.125 5.625 10.125C3.27825 10.125 1.35 11.6977 1.143 13.7036C1.19063 13.9624 1.32747 14.1963 1.52973 14.3647C1.73199 14.533 1.98685 14.6251 2.25 14.625H10.08C10.11 14.4413 10.125 14.2538 10.125 14.0625ZM7.875 6.75C7.875 6.15326 7.63795 5.58097 7.21599 5.15901C6.79403 4.73705 6.22174 4.5 5.625 4.5C5.02826 4.5 4.45597 4.73705 4.03401 5.15901C3.61205 5.58097 3.375 6.15326 3.375 6.75C3.375 7.34674 3.61205 7.91903 4.03401 8.34099C4.45597 8.76295 5.02826 9 5.625 9C6.22174 9 6.79403 8.76295 7.21599 8.34099C7.63795 7.91903 7.875 7.34674 7.875 6.75Z" fill="white"/>
</svg>
