<svg width="18" height="18" viewBox="0 0 18 18" fill="none" xmlns="http://www.w3.org/2000/svg">
<g clip-path="url(#clip0_1361_10614)">
<path d="M15.0007 8.30779C15.1768 8.48779 15.3115 8.67482 15.4335 8.89455C15.4577 8.93709 15.4577 8.93709 15.4827 8.98068C15.8058 9.58502 15.8307 10.2206 15.8304 10.8886C15.8307 10.961 15.8311 11.0338 15.8311 11.1066C15.8318 11.3028 15.8321 11.4989 15.8321 11.6951C15.8321 11.8178 15.8321 11.9405 15.8325 12.0632C15.8332 12.4917 15.8332 12.9199 15.8332 13.3485C15.8332 13.7472 15.8339 14.1462 15.8349 14.5452C15.836 14.8883 15.8364 15.2315 15.8364 15.5746C15.8364 15.7792 15.8367 15.9838 15.8374 16.1884C15.8381 16.3807 15.8381 16.573 15.8374 16.7653C15.8374 16.8356 15.8374 16.9063 15.8381 16.9766C15.8385 17.0729 15.8381 17.1693 15.8378 17.2656C15.8381 17.2934 15.8385 17.3212 15.8388 17.3496C15.8356 17.5883 15.7625 17.7733 15.5962 17.9462C15.3934 18.0317 15.1902 18.0194 14.9733 18.0176C14.9226 18.0176 14.8717 18.0179 14.821 18.0183C14.6839 18.0187 14.5468 18.0183 14.4097 18.0176C14.2659 18.0172 14.1221 18.0172 13.9783 18.0176C13.7372 18.0176 13.4956 18.0172 13.2545 18.0162C12.9757 18.0155 12.6969 18.0155 12.4178 18.0158C12.1495 18.0162 11.8809 18.0158 11.6123 18.0155C11.4984 18.0151 11.3842 18.0151 11.2699 18.0155C11.1356 18.0155 11.001 18.0151 10.8667 18.0144C10.8174 18.0141 10.7679 18.0141 10.7187 18.0144C10.6515 18.0144 10.584 18.0141 10.5165 18.0137C10.4789 18.0134 10.4413 18.0134 10.4026 18.0134C10.2848 17.9979 10.2201 17.9645 10.1249 17.8946C9.96526 17.6861 9.96385 17.5029 9.96526 17.2459C9.96491 17.2062 9.96456 17.1665 9.9642 17.1253C9.96315 16.9942 9.9628 16.8634 9.9628 16.7323C9.96245 16.6412 9.96174 16.5502 9.96104 16.4591C9.95963 16.244 9.95893 16.0292 9.95858 15.8144C9.95788 15.5697 9.95647 15.3246 9.95506 15.0799C9.95225 14.5769 9.95049 14.0734 9.94909 13.5703C9.93327 13.5865 9.91709 13.603 9.90092 13.6199C9.82745 13.6944 9.75432 13.7686 9.68084 13.8431C9.65553 13.8688 9.63057 13.8945 9.60456 13.9208C9.21432 14.3149 8.79069 14.4591 8.24014 14.4644C8.19303 14.464 8.14592 14.464 8.09881 14.464C8.04854 14.464 7.99791 14.4644 7.94729 14.4647C7.81088 14.4658 7.67483 14.4658 7.53842 14.4658C7.42416 14.4658 7.30991 14.4658 7.19565 14.4661C6.92565 14.4668 6.656 14.4672 6.386 14.4668C6.10897 14.4665 5.83159 14.4672 5.55456 14.4686C5.31549 14.4696 5.07643 14.47 4.83737 14.47C4.69499 14.47 4.5526 14.47 4.41022 14.471C4.27627 14.4717 4.14233 14.4717 4.00838 14.471C3.93666 14.4707 3.86459 14.4714 3.79288 14.4721C3.30174 14.4679 2.93155 14.3065 2.57788 13.9718C2.22842 13.6016 2.15952 13.1812 2.1676 12.6963C2.18694 12.2625 2.40456 11.9219 2.71358 11.6301C2.95862 11.4307 3.26483 11.2757 3.58405 11.2855C3.61885 11.2862 3.65401 11.2873 3.68987 11.2883C3.72819 11.2894 3.76651 11.2904 3.80588 11.2919C3.88956 11.294 3.97358 11.2961 4.0576 11.2982C4.1019 11.2996 4.14655 11.3006 4.1926 11.3017C4.47948 11.3084 4.7667 11.3108 5.05393 11.314C5.3053 11.3168 5.55666 11.321 5.80803 11.3295C7.02022 11.4279 7.02022 11.4279 8.08967 11.0029C8.25526 10.8447 8.3885 10.6668 8.5119 10.4745C8.67432 10.221 8.89545 10.0136 9.10885 9.80299C9.13522 9.77662 9.16159 9.75061 9.18866 9.72353C9.3001 9.61244 9.41225 9.5017 9.52405 9.39096C9.60596 9.30939 9.68823 9.22783 9.77014 9.14592C9.80741 9.109 9.80741 9.109 9.84538 9.07139C9.98495 8.93287 10.1175 8.79084 10.2455 8.64178C10.8431 7.95271 11.5933 7.444 12.5222 7.35857C13.489 7.29705 14.3053 7.64264 15.0007 8.30779Z" fill="white"/>
<path d="M11.3593 -0.0145238C11.3934 -0.0148753 11.4275 -0.0148753 11.4627 -0.0152269C11.5741 -0.01593 11.6859 -0.01593 11.7977 -0.0155785C11.8758 -0.0155785 11.9542 -0.01593 12.0322 -0.0162816C12.1961 -0.0162816 12.3595 -0.0162816 12.5234 -0.01593C12.7322 -0.0155785 12.941 -0.0162816 13.1502 -0.0173363C13.3116 -0.0180394 13.4729 -0.0180394 13.6346 -0.0176878C13.7116 -0.0176878 13.7886 -0.0180394 13.8656 -0.018391C14.4042 -0.0212035 14.8191 0.00867936 15.2575 0.351101C15.2793 0.367976 15.3007 0.384851 15.3232 0.402078C15.6301 0.672781 15.8013 1.11012 15.8266 1.51302C15.8298 1.63677 15.8305 1.76087 15.8305 1.88497C15.8309 1.93067 15.8309 1.97637 15.8312 2.02348C15.8312 2.12016 15.8312 2.21649 15.8312 2.31317C15.8309 2.41091 15.8312 2.50864 15.8319 2.60637C15.8393 3.74684 15.7075 4.65739 14.9059 5.51907C14.5761 5.83301 14.1434 6.08227 13.7106 6.22219C13.6807 6.23274 13.6505 6.24329 13.6195 6.25419C13.0387 6.42329 12.3448 6.38673 11.777 6.18704C11.7394 6.17403 11.7018 6.16102 11.6631 6.14731C10.9406 5.86958 10.3574 5.29723 10.0192 4.60501C9.88699 4.28333 9.77308 3.93563 9.77308 3.58548C9.74426 3.58618 9.71543 3.58688 9.68555 3.58723C9.55441 3.58934 9.42328 3.59075 9.2918 3.59216C9.24644 3.59321 9.20109 3.59391 9.15398 3.59497C9.11039 3.59532 9.06644 3.59567 9.02109 3.59602C8.96062 3.59673 8.96062 3.59673 8.8991 3.59743C8.73105 3.5795 8.64351 3.51516 8.53383 3.39001C8.4157 3.22583 8.41465 3.08098 8.43715 2.88235C8.52363 2.71887 8.61117 2.5902 8.78871 2.53079C8.86394 2.52798 8.93918 2.52727 9.01441 2.52762C9.08051 2.52762 9.08051 2.52762 9.14801 2.52798C9.21691 2.52833 9.21691 2.52833 9.28758 2.52868C9.33433 2.52903 9.38144 2.52903 9.4282 2.52938C9.54316 2.52973 9.65812 2.53009 9.77308 2.53079C9.77273 2.49563 9.77203 2.46012 9.77133 2.42356C9.76957 2.29067 9.76816 2.15743 9.76746 2.02454C9.76676 1.96723 9.76605 1.90993 9.76535 1.85262C9.75656 1.29505 9.83637 0.844695 10.2273 0.418601C10.5567 0.114851 10.9181 -0.0166331 11.3593 -0.0145238Z" fill="white"/>
<path d="M3.60281 5.41039C3.65027 5.41039 3.65027 5.41039 3.69879 5.41039C3.73289 5.41074 3.76699 5.41074 3.80215 5.41109C3.85453 5.41109 3.85453 5.41109 3.90797 5.41109C4.01977 5.41145 4.13156 5.4118 4.24336 5.41215C4.31895 5.4125 4.39453 5.4125 4.47047 5.4125C4.65609 5.4132 4.84207 5.41355 5.0277 5.41426C5.02805 5.46066 5.02805 5.46066 5.02875 5.50777C5.03016 5.62309 5.03227 5.73805 5.03508 5.85336C5.03578 5.90328 5.03684 5.95285 5.03719 6.00242C5.03789 6.07414 5.03965 6.14586 5.04141 6.21793C5.04211 6.26082 5.04281 6.30406 5.04352 6.34836C5.07129 6.52238 5.14828 6.63383 5.28258 6.74598C5.43586 6.80855 5.57402 6.81453 5.72941 6.7625C5.86617 6.69535 5.93297 6.62855 5.99098 6.4823C6.03949 6.29 6.03281 6.08855 6.03633 5.89133C6.03738 5.84527 6.03844 5.79957 6.03984 5.75211C6.04266 5.63961 6.04512 5.52711 6.04723 5.41426C6.26871 5.41074 6.4902 5.40828 6.71168 5.40652C6.78691 5.40582 6.86215 5.40512 6.93738 5.40371C7.04566 5.40195 7.1543 5.40125 7.26258 5.40055C7.29598 5.39984 7.32973 5.39914 7.36418 5.39844C7.56281 5.39844 7.68973 5.4118 7.8402 5.55488C7.98926 5.77004 8.00086 5.97324 7.9991 6.22848C7.9991 6.2668 7.99945 6.30512 7.9998 6.34449C8.00016 6.4707 7.9998 6.59691 7.99945 6.72277C7.99945 6.81102 7.9998 6.89891 7.9998 6.9868C8.00016 7.17102 7.9998 7.35523 7.9991 7.53945C7.9984 7.7518 7.99875 7.96379 7.99945 8.17613C8.00016 8.38145 8.00016 8.58641 7.99945 8.79137C7.99945 8.8782 7.99945 8.96504 7.9998 9.05223C8.00016 9.17352 7.9998 9.29516 7.9991 9.4168C7.9991 9.4523 7.99945 9.48816 7.9998 9.52508C7.99734 9.74164 7.97168 9.91285 7.8402 10.09C7.65844 10.2676 7.46367 10.2507 7.22391 10.2486C7.18348 10.2486 7.14305 10.2489 7.10121 10.2489C6.96727 10.2493 6.83332 10.2489 6.69973 10.2482C6.60656 10.2482 6.5134 10.2482 6.42023 10.2482C6.22547 10.2486 6.03035 10.2479 5.83559 10.2472C5.61023 10.2461 5.38523 10.2461 5.15988 10.2465C4.94297 10.2468 4.72605 10.2468 4.50914 10.2461C4.41703 10.2461 4.32457 10.2461 4.23246 10.2461C4.10379 10.2465 3.97512 10.2458 3.84609 10.2451C3.80812 10.2451 3.7698 10.2454 3.73078 10.2454C3.4077 10.2423 3.4077 10.2423 3.26988 10.1252C3.14578 9.98387 3.08988 9.90301 3.08883 9.71598C3.08848 9.6643 3.08848 9.6643 3.08812 9.61191C3.08812 9.57395 3.08777 9.53598 3.08777 9.49695C3.08742 9.45723 3.08742 9.4175 3.08707 9.37637C3.08637 9.24418 3.08602 9.11199 3.08566 8.98016C3.08566 8.9348 3.08531 8.8898 3.08531 8.8434C3.08461 8.62965 3.08391 8.4159 3.08391 8.2018C3.08355 7.95535 3.0825 7.70855 3.08109 7.46176C3.08004 7.24801 3.07934 7.03426 3.07934 6.82051C3.07934 6.7298 3.07863 6.63875 3.07828 6.5477C3.07723 6.42078 3.07723 6.29352 3.07758 6.16625C3.07723 6.12863 3.07652 6.09102 3.07617 6.05234C3.07793 5.795 3.12258 5.68496 3.28957 5.49125C3.3866 5.41109 3.48293 5.41004 3.60281 5.41039Z" fill="white"/>
</g>
<defs>
<clipPath id="clip0_1361_10614">
<rect width="18" height="18" fill="white"/>
</clipPath>
</defs>
</svg>
