<svg width="87" height="81" viewBox="0 0 87 81" fill="none" xmlns="http://www.w3.org/2000/svg">
<path fill-rule="evenodd" clip-rule="evenodd" d="M68.1726 48.1542C67.3731 66.1746 56.6441 80.5333 43.5965 80.5333C30.549 80.5333 18.9725 65.0073 18.9725 45.9796C19.66 33.044 24.8727 21.4515 30.3571 15.3595L30.6289 15.4554L31.6203 15.8392L32.6116 16.2389L33.619 16.6706L34.6263 17.1343L35.6337 17.63L36.641 18.1577L37.6484 18.7173C38.4159 19.165 39.1674 19.6287 39.9349 20.0924L41.374 21.0518L42.7491 22.0431L42.797 22.0751C35.2659 28.487 32.9954 36.4658 32.9954 45.9477C32.9954 58.4036 37.7603 68.557 43.6125 68.557C48.1856 68.557 52.103 62.337 53.5901 53.6547L54.2776 53.4948L55.4289 53.207L56.5801 52.8872L57.7314 52.5514L58.8826 52.1836L60.0499 51.7839L61.2171 51.3681L62.3684 50.9204L63.5196 50.4408L64.6709 49.9291L65.8221 49.4014L66.9734 48.8258L68.1726 48.1063V48.1542ZM43.9963 5.1101L45.2115 5.78167L46.2828 6.48521L47.3221 7.20475L48.3455 7.94027L49.3368 8.69178L50.3122 9.45929L51.2556 10.2428L52.183 11.0423L53.0784 11.8577L53.9578 12.6732L54.8053 13.5047L55.6367 14.3361L56.1164 14.8478C64.447 11.7778 71.8502 12.0336 74.1367 15.9511C77.0629 20.9718 70.5711 30.1339 59.6821 36.3539C51.3835 41.1028 43.2607 43.1335 33.9068 39.8876V39.9515L33.7149 41.6305L33.603 43.3413C33.571 44.2208 33.539 45.1002 33.539 45.9796V47.1309L33.587 48.2662L33.651 49.3854L33.7469 50.4887L33.8588 51.56L34.0027 52.6153L34.1626 53.6547L34.2106 53.9265C42.2854 55.5734 55.0291 54.2463 66.6856 48.3781C83.3308 38.8642 91.3736 21.6114 84.594 9.98694C78.0702 -1.20581 60.1458 -3.2205 43.9803 5.1101H43.9963ZM18.4288 47.3707L18.3968 45.9956L18.4768 44.7165L18.5887 43.4693L18.7326 42.2221L18.8925 40.9909L19.0844 39.7757L19.2923 38.5764L19.5321 37.3772L19.7879 36.194L20.0598 35.0267L20.3636 33.8755L20.6834 32.7402L20.8912 32.0846C14.0477 26.4723 10.5619 19.9965 12.8484 16.079C15.7745 11.0583 27.0313 12.0496 37.9202 18.2696C46.2188 23.0185 52.055 28.9507 53.8939 38.6084H53.9418L55.4928 37.9049L57.0438 37.1534C57.8273 36.7376 58.6108 36.3219 59.3783 35.8902L60.3697 35.2986L61.345 34.6909L62.2884 34.0833L63.1998 33.4597L64.0793 32.8202L64.9267 32.1646L65.7422 31.509L65.9501 31.3331C63.3597 23.5941 55.8286 13.3128 44.8597 6.26136C28.2784 -3.25248 9.18681 -1.5256 2.4072 10.0989C-4.11658 21.2916 3.07876 37.665 18.4448 47.3707H18.4288Z" fill="#E51D25"/>
</svg>
